<?xml version="1.0" encoding="UTF-8"?>
<svg version="1.1" xmlns="http://www.w3.org/2000/svg" width="358" height="178">
<path d="M0 0 C118.14 0 236.28 0 358 0 C358 58.74 358 117.48 358 178 C239.86 178 121.72 178 0 178 C0 119.26 0 60.52 0 0 Z " fill="#F1F3F6" transform="translate(0,0)"/>
<path d="M0 0 C5.63750112 4.05563514 6.46800355 9.12214159 7.8125 15.5625 C8.02841797 16.50802734 8.24433594 17.45355469 8.46679688 18.42773438 C9.3570529 22.42682095 10 25.87892847 10 30 C10.97195312 29.566875 11.94390625 29.13375 12.9453125 28.6875 C21.46084517 25.15290891 29.18618657 23.40025525 38.4375 23.375 C39.33549316 23.3646875 40.23348633 23.354375 41.15869141 23.34375 C51.68826924 23.56105472 59.34796732 27.39685839 66.859375 34.6484375 C72.18882147 40.5030484 73.66192569 45.54035545 73.3125 53.45703125 C72.59020127 59.33473714 69.70552747 63.01944352 65.19921875 66.609375 C56.98410538 71.80401152 47.53059522 73.25896623 38 72 C27.45646713 69.4515097 19.39023141 65.36659712 13.3125 56.25 C6 43.54017857 6 43.54017857 6 38 C-0.34934259 40.75537508 -5.15377006 44.41371826 -10.43359375 48.87109375 C-13.18541711 51.15380871 -15.96842391 53.11550676 -19 55 C-15.03174981 45.84408941 -4.72795854 38.36397927 4 34 C2.08861762 19.5283807 2.08861762 19.5283807 -3 6 C-13.97987085 6.24399713 -22.99409407 15.27399421 -31 22 C-31.73863281 22.59167969 -32.47726563 23.18335937 -33.23828125 23.79296875 C-40.79712247 30.08976544 -49.04599916 38.87190663 -53 48 C-53.66 48 -54.32 48 -55 48 C-55.23976563 48.67289063 -55.47953125 49.34578125 -55.7265625 50.0390625 C-57.30122354 53.70039092 -59.29167615 56.98449256 -61.375 60.375 C-62.15438679 61.65319433 -62.93303643 62.93183843 -63.7109375 64.2109375 C-64.08959961 64.83323242 -64.46826172 65.45552734 -64.85839844 66.09667969 C-66.62186344 69.03679371 -68.31153452 72.01627333 -70 75 C-70.33 74.34 -70.66 73.68 -71 73 C-69.97670787 70.59080773 -68.89167078 68.31804946 -67.6875 66 C-67.1459729 64.94389526 -67.1459729 64.94389526 -66.59350586 63.86645508 C-65.40746068 61.57128239 -64.20522065 59.28515552 -63 57 C-62.59749023 56.22833496 -62.19498047 55.45666992 -61.78027344 54.66162109 C-56.68225051 44.938818 -51.39769124 36.1898447 -44 28 C-43.24332031 27.10152344 -42.48664063 26.20304687 -41.70703125 25.27734375 C-35.23563082 17.77136381 -27.99860755 11.77782888 -20 6 C-19.08734375 5.33226562 -18.1746875 4.66453125 -17.234375 3.9765625 C-11.90624762 0.40772247 -6.43094074 -1.93468637 0 0 Z " fill="#2D9BC6" transform="translate(182,36)"/>
<path d="M0 0 C0.75990234 -0.01224609 1.51980469 -0.02449219 2.30273438 -0.03710938 C9.60198541 -0.05580942 16.05266498 0.75776227 21.875 5.5625 C22.60332031 6.14773437 23.33164063 6.73296875 24.08203125 7.3359375 C27.60649624 10.63099944 29.78472183 13.54177673 30.30078125 18.45703125 C30.42385043 22.67377007 30.29700374 25.63692599 28.625 29.5625 C22.98199691 35.34313731 17.0842183 36.58274905 9.125 36.6875 C0.7575203 36.58749415 -7.17677456 34.76919022 -13.49609375 28.91796875 C-19.35058127 21.88941056 -22.95268182 14.27194525 -23.9375 5.1875 C-22.7572974 4.52842582 -21.56779266 3.8860052 -20.375 3.25 C-19.71371094 2.89035156 -19.05242187 2.53070313 -18.37109375 2.16015625 C-12.53733402 -0.17147485 -6.1937918 0.00522683 0 0 Z " fill="#EFF2F6" transform="translate(217.9375,64.8125)"/>
<path d="M0 0 C3.526875 -0.061875 7.05375 -0.12375 10.6875 -0.1875 C12.342052 -0.22846802 12.342052 -0.22846802 14.0300293 -0.27026367 C23.58961938 -0.35158096 23.58961938 -0.35158096 27 3 C27.48828125 5.26171875 27.48828125 5.26171875 27.3125 7.6875 C27.24482422 8.89986328 27.24482422 8.89986328 27.17578125 10.13671875 C27.11777344 10.75160156 27.05976563 11.36648437 27 12 C25.02 12.99 25.02 12.99 23 14 C24.52708963 17.43595166 26.59927045 20.11912454 29 23 C28.01 23.33 27.02 23.66 26 24 C25.37738281 23.04287109 25.37738281 23.04287109 24.7421875 22.06640625 C21.63586961 17.90082097 19.5563482 15.3499284 14.3515625 14.1796875 C10.87825176 13.96128459 7.47717525 13.87790817 4 14 C4 17.3 4 20.6 4 24 C2.68 24 1.36 24 0 24 C0 16.08 0 8.16 0 0 Z " fill="#96979B" transform="translate(122,123)"/>
<path d="M0 0 C4.74658203 0.73535156 4.74658203 0.73535156 7.02734375 3.1171875 C11.47265669 9.53516487 15.4482302 16.04445081 19 23 C17.1875 22.8125 17.1875 22.8125 15 22 C14.42572266 20.75283203 14.42572266 20.75283203 13.83984375 19.48046875 C12.29834856 16.85971854 12.29834856 16.85971854 10.05126953 16.49462891 C7.5378107 16.28816436 5.08384679 16.26919083 2.5625 16.3125 C1.27375977 16.27092773 1.27375977 16.27092773 -0.04101562 16.22851562 C-2.51848821 16.23812568 -4.61286129 16.33005557 -7 17 C-9.45120516 19.91177367 -9.45120516 19.91177367 -11 23 C-11.99 23 -12.98 23 -14 23 C-12.72199484 19.55044666 -11.23881563 16.61909971 -9.1796875 13.57421875 C-8.64472656 12.77822266 -8.10976563 11.98222656 -7.55859375 11.16210938 C-7.00300781 10.34548828 -6.44742188 9.52886719 -5.875 8.6875 C-5.31167969 7.85154297 -4.74835938 7.01558594 -4.16796875 6.15429688 C-2.78279211 4.10000948 -1.39337781 2.04872962 0 0 Z " fill="#8E8F93" transform="translate(69,124)"/>
<path d="M0 0 C3.12459611 0.30627427 4.59459437 0.55449619 6.74511719 2.91772461 C7.25719727 3.73764893 7.76927734 4.55757324 8.296875 5.40234375 C8.86277344 6.29244141 9.42867187 7.18253906 10.01171875 8.09960938 C10.58535156 9.03611328 11.15898437 9.97261719 11.75 10.9375 C12.33910156 11.87013672 12.92820313 12.80277344 13.53515625 13.76367188 C17.66183036 20.32366071 17.66183036 20.32366071 19 23 C17.68 23 16.36 23 15 23 C12 18.92857143 12 18.92857143 12 16 C5.4 16 -1.2 16 -8 16 C-8.99 18.475 -8.99 18.475 -10 21 C-10.33 21.66 -10.66 22.32 -11 23 C-12.32 22.67 -13.64 22.34 -15 22 C-13.0644185 19.08205596 -11.12619838 16.16587391 -9.1875 13.25 C-8.64029297 12.425 -8.09308594 11.6 -7.52929688 10.75 C-6.99755859 9.95078125 -6.46582031 9.1515625 -5.91796875 8.328125 C-5.43094482 7.5949707 -4.9439209 6.86181641 -4.44213867 6.10644531 C-3.01697343 4.02479207 -1.52867729 2.00651286 0 0 Z " fill="#8B8C90" transform="translate(167,124)"/>
<path d="M0 0 C1.06734375 -0.00257812 2.1346875 -0.00515625 3.234375 -0.0078125 C4.91273438 0.00378906 4.91273438 0.00378906 6.625 0.015625 C7.74390625 0.00789063 8.8628125 0.00015625 10.015625 -0.0078125 C11.08296875 -0.00523438 12.1503125 -0.00265625 13.25 0 C14.23226562 0.00225586 15.21453125 0.00451172 16.2265625 0.00683594 C18.625 0.265625 18.625 0.265625 20.625 2.265625 C20.75 4.890625 20.75 4.890625 20.625 7.265625 C19.305 7.265625 17.985 7.265625 16.625 7.265625 C16.625 5.615625 16.625 3.965625 16.625 2.265625 C13.47918577 2.23673986 10.33340531 2.21886577 7.1875 2.203125 C6.28966797 2.19474609 5.39183594 2.18636719 4.46679688 2.17773438 C3.61279297 2.17451172 2.75878906 2.17128906 1.87890625 2.16796875 C1.08814697 2.16273193 0.2973877 2.15749512 -0.51733398 2.15209961 C-2.39092689 2.06066591 -2.39092689 2.06066591 -3.375 3.265625 C-3.44830331 6.13031825 -3.46717831 8.96456174 -3.4375 11.828125 C-3.416875 14.6125 -3.39625 17.396875 -3.375 20.265625 C3.225 20.595625 9.825 20.925625 16.625 21.265625 C16.625 18.955625 16.625 16.645625 16.625 14.265625 C13.325 14.265625 10.025 14.265625 6.625 14.265625 C6.625 13.605625 6.625 12.945625 6.625 12.265625 C11.245 12.265625 15.865 12.265625 20.625 12.265625 C21.015625 18.22265625 21.015625 18.22265625 20.625 20.265625 C17.69605982 22.9995243 15.71205287 23.64298478 11.74609375 23.62890625 C10.82505859 23.62826172 9.90402344 23.62761719 8.95507812 23.62695312 C8.00052734 23.61083984 7.04597656 23.59472656 6.0625 23.578125 C5.10408203 23.58134766 4.14566406 23.58457031 3.15820312 23.58789062 C-3.97407003 23.53291164 -3.97407003 23.53291164 -7.375 21.265625 C-7.74731445 19.32617188 -7.74731445 19.32617188 -7.73828125 16.984375 C-7.73763672 16.14261719 -7.73699219 15.30085937 -7.73632812 14.43359375 C-7.72021484 13.55316406 -7.70410156 12.67273438 -7.6875 11.765625 C-7.69072266 10.88519531 -7.69394531 10.00476563 -7.69726562 9.09765625 C-7.64135915 2.46003338 -7.29490243 0.01675338 0 0 Z " fill="#96989B" transform="translate(194.375,123.734375)"/>
<path d="M0 0 C5.24142182 1.04828436 7.14695721 2.56831558 10.75 6.125 C11.79953845 7.12637201 12.85164457 8.12505948 13.90625 9.12109375 C14.68355469 9.85561768 14.68355469 9.85561768 15.4765625 10.60498047 C18.7968577 13.64539181 22.40170914 16.30128186 26 19 C26 12.73 26 6.46 26 0 C26.99 0 27.98 0 29 0 C29 7.59 29 15.18 29 23 C23.37707342 21.87541468 23.37707342 21.87541468 20.66015625 19.234375 C20.07169922 18.67363281 19.48324219 18.11289063 18.87695312 17.53515625 C18.27818359 16.94605469 17.67941406 16.35695312 17.0625 15.75 C15.86727881 14.59751153 14.67067792 13.44645208 13.47265625 12.296875 C12.94937744 11.78479492 12.42609863 11.27271484 11.88696289 10.74511719 C9.3472759 8.39634211 6.65750764 6.2145897 4 4 C3.67 10.27 3.34 16.54 3 23 C2.01 23 1.02 23 0 23 C0 15.41 0 7.82 0 0 Z " fill="#8C8D91" transform="translate(248,124)"/>
<path d="M0 0 C1.46566406 -0.00386719 1.46566406 -0.00386719 2.9609375 -0.0078125 C3.98445313 -0.00007813 5.00796875 0.00765625 6.0625 0.015625 C7.08601563 0.00789063 8.10953125 0.00015625 9.1640625 -0.0078125 C10.14117187 -0.00523438 11.11828125 -0.00265625 12.125 0 C13.02347656 0.00225586 13.92195313 0.00451172 14.84765625 0.00683594 C17.0625 0.265625 17.0625 0.265625 19.0625 2.265625 C19.0625 3.585625 19.0625 4.905625 19.0625 6.265625 C18.0725 6.265625 17.0825 6.265625 16.0625 6.265625 C15.7325 4.945625 15.4025 3.625625 15.0625 2.265625 C12.24993719 2.23878188 9.43762759 2.21886312 6.625 2.203125 C5.82255859 2.19474609 5.02011719 2.18636719 4.19335938 2.17773438 C2.14954779 2.1691107 0.10566098 2.2133435 -1.9375 2.265625 C-3.23383621 3.33207615 -3.23383621 3.33207615 -3 5.828125 C-2.979375 6.6325 -2.95875 7.436875 -2.9375 8.265625 C-1.99898193 8.43167236 -1.99898193 8.43167236 -1.04150391 8.60107422 C1.78635769 9.10610581 4.61187986 9.62320625 7.4375 10.140625 C8.42234375 10.31464844 9.4071875 10.48867187 10.421875 10.66796875 C11.36289062 10.84199219 12.30390625 11.01601562 13.2734375 11.1953125 C14.14274902 11.35241699 15.01206055 11.50952148 15.90771484 11.67138672 C18.0625 12.265625 18.0625 12.265625 20.0625 14.265625 C20.375 17.765625 20.375 17.765625 20.0625 21.265625 C16.7963047 23.44308853 15.81304166 23.52168929 12.02734375 23.53125 C11.05345703 23.53382813 10.07957031 23.53640625 9.07617188 23.5390625 C8.06103516 23.53132813 7.04589844 23.52359375 6 23.515625 C4.98099609 23.52335937 3.96199219 23.53109375 2.91210938 23.5390625 C1.93951172 23.53648437 0.96691406 23.53390625 -0.03515625 23.53125 C-0.92726807 23.52899414 -1.81937988 23.52673828 -2.73852539 23.52441406 C-4.9375 23.265625 -4.9375 23.265625 -6.9375 21.265625 C-7.0625 18.640625 -7.0625 18.640625 -6.9375 16.265625 C-5.9475 16.265625 -4.9575 16.265625 -3.9375 16.265625 C-3.6075 17.585625 -3.2775 18.905625 -2.9375 20.265625 C3.3325 20.265625 9.6025 20.265625 16.0625 20.265625 C16.0625 18.615625 16.0625 16.965625 16.0625 15.265625 C15.47235107 15.15492676 14.88220215 15.04422852 14.27416992 14.93017578 C11.59805054 14.42407508 8.92406297 13.9074761 6.25 13.390625 C5.32123047 13.21660156 4.39246094 13.04257813 3.43554688 12.86328125 C2.54287109 12.68925781 1.65019531 12.51523438 0.73046875 12.3359375 C-0.50280151 12.10028076 -0.50280151 12.10028076 -1.76098633 11.85986328 C-3.9375 11.265625 -3.9375 11.265625 -6.9375 9.265625 C-7.25 5.765625 -7.25 5.765625 -6.9375 2.265625 C-4.40695663 -0.26491837 -3.50201118 0.00879271 0 0 Z " fill="#8E8F93" transform="translate(288.9375,123.734375)"/>
<path d="M0 0 C2.95857409 -0.05379226 5.91617721 -0.09357093 8.875 -0.125 C9.71675781 -0.14175781 10.55851563 -0.15851563 11.42578125 -0.17578125 C12.23144531 -0.18222656 13.03710938 -0.18867187 13.8671875 -0.1953125 C14.98262939 -0.21102295 14.98262939 -0.21102295 16.12060547 -0.22705078 C18 0 18 0 20 2 C20.1875 5.5625 20.1875 5.5625 20 9 C19 10 19 10 17.14233398 10.11352539 C16.35157471 10.10828857 15.56081543 10.10305176 14.74609375 10.09765625 C13.89208984 10.09443359 13.03808594 10.09121094 12.15820312 10.08789062 C11.26037109 10.07951172 10.36253906 10.07113281 9.4375 10.0625 C8.53580078 10.05798828 7.63410156 10.05347656 6.70507812 10.04882812 C4.47002411 10.03700244 2.23500398 10.01906638 0 10 C0 6.7 0 3.4 0 0 Z " fill="#EDEFF2" transform="translate(126,125)"/>
<path d="M0 0 C8.25 0 16.5 0 25 0 C25 0.33 25 0.66 25 1 C17.74 1 10.48 1 3 1 C3 3.97 3 6.94 3 10 C9.6 10 16.2 10 23 10 C23 10.66 23 11.32 23 12 C16.73 12 10.46 12 4 12 C4 14.97 4 17.94 4 21 C10.93 21 17.86 21 25 21 C25 21.66 25 22.32 25 23 C16.75 23 8.5 23 0 23 C0 15.41 0 7.82 0 0 Z " fill="#929397" transform="translate(219,124)"/>
<path d="M0 0 C0.99 0 1.98 0 3 0 C3 7.26 3 14.52 3 22 C12.9 21.505 12.9 21.505 23 21 C23.33 14.4 23.66 7.8 24 1 C24.99 1 25.98 1 27 1 C27.11608726 4.27053517 27.18720711 7.5405418 27.25 10.8125 C27.30027344 12.2056543 27.30027344 12.2056543 27.3515625 13.62695312 C27.36445312 14.51962891 27.37734375 15.41230469 27.390625 16.33203125 C27.41157227 17.15421143 27.43251953 17.9763916 27.45410156 18.82348633 C27 21 27 21 25.28271484 22.76904297 C22.65560251 24.1857168 21.05567981 24.37374406 18.0859375 24.36328125 C17.16039063 24.36263672 16.23484375 24.36199219 15.28125 24.36132812 C14.3221875 24.34521484 13.363125 24.32910156 12.375 24.3125 C11.40820312 24.31572266 10.44140625 24.31894531 9.4453125 24.32226562 C2.26712592 24.26712592 2.26712592 24.26712592 0 22 C-0.22705078 19.75341797 -0.22705078 19.75341797 -0.1953125 16.9921875 C-0.18886719 16.00605469 -0.18242188 15.01992187 -0.17578125 14.00390625 C-0.15902344 12.97136719 -0.14226562 11.93882812 -0.125 10.875 C-0.11597656 9.83472656 -0.10695313 8.79445312 -0.09765625 7.72265625 C-0.07403747 5.14820908 -0.04110149 2.57421788 0 0 Z " fill="#929397" transform="translate(90,123)"/>
<path d="M0 0 C3.67882073 3.28466137 5.75150101 6.66360908 8 11 C8 11.66 8 12.32 8 13 C2.72 13 -2.56 13 -8 13 C-1.125 1.125 -1.125 1.125 0 0 Z " fill="#E9EBEE" transform="translate(71,126)"/>
<path d="M0 0 C3.62351253 1.20783751 4.15215236 2.29653142 6.1875 5.4375 C6.71730469 6.24058594 7.24710938 7.04367188 7.79296875 7.87109375 C9 10 9 10 9 12 C3.72 12 -1.56 12 -7 12 C-5.55244413 9.10488827 -4.09685983 6.46872604 -2.375 3.75 C-1.92898437 3.04359375 -1.48296875 2.3371875 -1.0234375 1.609375 C-0.68570313 1.07828125 -0.34796875 0.5471875 0 0 Z " fill="#EBECF0" transform="translate(168,127)"/>
<path d="M0 0 C1 3 1 3 -0.3125 5.6875 C-0.869375 6.450625 -1.42625 7.21375 -2 8 C-2.66 8 -3.32 8 -4 8 C-4.23976563 8.67289063 -4.47953125 9.34578125 -4.7265625 10.0390625 C-6.30122354 13.70039092 -8.29167615 16.98449256 -10.375 20.375 C-11.15438679 21.65319433 -11.93303643 22.93183843 -12.7109375 24.2109375 C-13.27893066 25.14437988 -13.27893066 25.14437988 -13.85839844 26.09667969 C-15.62186344 29.03679371 -17.31153452 32.01627333 -19 35 C-19.33 34.34 -19.66 33.68 -20 33 C-18.95525439 30.550041 -17.8497226 28.23404436 -16.625 25.875 C-16.26575439 25.1730249 -15.90650879 24.4710498 -15.53637695 23.74780273 C-14.37146566 21.49095952 -13.18924078 19.24411217 -12 17 C-11.59797363 16.23993652 -11.19594727 15.47987305 -10.78173828 14.69677734 C-9.5979971 12.47720318 -8.39707907 10.26808478 -7.1875 8.0625 C-6.62893311 7.02488525 -6.62893311 7.02488525 -6.05908203 5.96630859 C-3.3504848 1.11682827 -3.3504848 1.11682827 0 0 Z " fill="#3DA1C9" transform="translate(131,76)"/>
<path d="M0 0 C0.99 0 1.98 0 3 0 C3 6.6 3 13.2 3 20 C2.01 20.33 1.02 20.66 0 21 C0 14.07 0 7.14 0 0 Z " fill="#898A8E" transform="translate(114,124)"/>
<path d="M0 0 C2.25 0.0625 2.25 0.0625 5 1 C6.67849824 3.2308475 7.75999263 5.47405906 9 8 C8.01 9.485 8.01 9.485 7 11 C5.02 7.535 5.02 7.535 3 4 C2.34 4 1.68 4 1 4 C-0.32 6.31 -1.64 8.62 -3 11 C-3.66 9.68 -4.32 8.36 -5 7 C-3.35 4.69 -1.7 2.38 0 0 Z " fill="#929397" transform="translate(167,124)"/>
<path d="M0 0 C0.66 0.33 1.32 0.66 2 1 C-1.10548956 6.43460672 -4.86399113 9.49728131 -10 13 C-10.61101562 13.41765625 -11.22203125 13.8353125 -11.8515625 14.265625 C-13.22556577 15.19030966 -14.61138784 16.0974021 -16 17 C-13.02550302 10.00118357 -5.98898148 4.44343788 0 0 Z " fill="#45A4CB" transform="translate(179,74)"/>
<path d="M0 0 C0.66 0.33 1.32 0.66 2 1 C-4.27 7.27 -10.54 13.54 -17 20 C-17.66 19.67 -18.32 19.34 -19 19 C-6.51480638 5.18223235 -6.51480638 5.18223235 0 0 Z " fill="#D1E4EE" transform="translate(154,54)"/>
<path d="M0 0 C0.99 0 1.98 0 3 0 C3.33 1.32 3.66 2.64 4 4 C9.94 4.33 15.88 4.66 22 5 C22 5.33 22 5.66 22 6 C18.70926338 6.22531972 15.41750581 6.42735982 12.125 6.625 C10.71927734 6.72167969 10.71927734 6.72167969 9.28515625 6.8203125 C7.94130859 6.89765625 7.94130859 6.89765625 6.5703125 6.9765625 C5.74289551 7.02893066 4.91547852 7.08129883 4.06298828 7.13525391 C2 7 2 7 0 5 C-0.125 2.375 -0.125 2.375 0 0 Z " fill="#A3A5A8" transform="translate(282,140)"/>
<path d="M0 0 C0.66 0.33 1.32 0.66 2 1 C0.58010715 4.74087154 -1.09766592 8.23068194 -3 11.75 C-3.515625 12.71421875 -4.03125 13.6784375 -4.5625 14.671875 C-6 17 -6 17 -8 18 C-6.10463724 11.48180123 -3.4821006 5.82185199 0 0 Z " fill="#72B7D5" transform="translate(119,93)"/>
<path d="M0 0 C2.95857409 -0.05379226 5.91617721 -0.09357093 8.875 -0.125 C9.71675781 -0.14175781 10.55851562 -0.15851563 11.42578125 -0.17578125 C12.23144531 -0.18222656 13.03710938 -0.18867187 13.8671875 -0.1953125 C14.98262939 -0.21102295 14.98262939 -0.21102295 16.12060547 -0.22705078 C18 0 18 0 20 2 C20 3.32 20 4.64 20 6 C19.01 6 18.02 6 17 6 C16.67 4.68 16.34 3.36 16 2 C10.72 1.67 5.44 1.34 0 1 C0 0.67 0 0.34 0 0 Z " fill="#8C8D91" transform="translate(288,124)"/>
<path d="M0 0 C3.69230769 0.69230769 3.69230769 0.69230769 5 2 C5.04063832 3.66617115 5.042721 5.33388095 5 7 C3.68 7 2.36 7 1 7 C1 5.35 1 3.7 1 2 C0.34 1.67 -0.32 1.34 -1 1 C-0.67 0.67 -0.34 0.34 0 0 Z " fill="#9C9DA1" transform="translate(210,124)"/>
<path d="M0 0 C0.7734375 0.07605469 1.546875 0.15210938 2.34375 0.23046875 C4.5 0.8125 4.5 0.8125 7.5 3.8125 C0.075 2.8225 0.075 2.8225 -7.5 1.8125 C-4.24139091 -0.35990606 -3.67949197 -0.42314158 0 0 Z " fill="#A5A6AA" transform="translate(296.5,134.1875)"/>
<path d="M0 0 C0.87454834 0.00523682 1.74909668 0.01047363 2.65014648 0.01586914 C3.59438477 0.0190918 4.53862305 0.02231445 5.51147461 0.02563477 C6.50469727 0.03401367 7.49791992 0.04239258 8.52124023 0.05102539 C9.51833008 0.05553711 10.51541992 0.06004883 11.54272461 0.06469727 C14.01478872 0.07652532 16.48673541 0.0930069 18.95874023 0.11352539 C18.95874023 0.44352539 18.95874023 0.77352539 18.95874023 1.11352539 C17.68256836 1.17411133 16.40639648 1.23469727 15.09155273 1.29711914 C13.42227008 1.38152107 11.75299986 1.46616925 10.08374023 1.55102539 C9.24198242 1.5903418 8.40022461 1.6296582 7.53295898 1.67016602 C6.72729492 1.71206055 5.92163086 1.75395508 5.09155273 1.79711914 C3.97611084 1.85210571 3.97611084 1.85210571 2.83813477 1.90820312 C0.87009712 2.01308404 0.87009712 2.01308404 -1.04125977 3.11352539 C-1.70125977 2.45352539 -2.36125977 1.79352539 -3.04125977 1.11352539 C-2.04125977 0.11352539 -2.04125977 0.11352539 0 0 Z " fill="#8D8E91" transform="translate(191.041259765625,123.886474609375)"/>
</svg>
