<?xml version="1.0" encoding="UTF-8"?>
<svg version="1.1" xmlns="http://www.w3.org/2000/svg" width="724" height="382">
<path d="M0 0 C238.92 0 477.84 0 724 0 C724 126.06 724 252.12 724 382 C485.08 382 246.16 382 0 382 C0 255.94 0 129.88 0 0 Z " fill="#F1F3F6" transform="translate(0,0)"/>
<path d="M0 0 C13.2 0 26.4 0 40 0 C40 1.32 40 2.64 40 4 C41.32 4 42.64 4 44 4 C44 5.32 44 6.64 44 8 C45.32 8 46.64 8 48 8 C48 9.32 48 10.64 48 12 C49.32 12 50.64 12 52 12 C52 13.32 52 14.64 52 16 C53.32 16 54.64 16 56 16 C56 17.32 56 18.64 56 20 C57.32 20 58.64 20 60 20 C60 26.6 60 33.2 60 40 C61.32 40 62.64 40 64 40 C64 45.28 64 50.56 64 56 C65.32 56 66.64 56 68 56 C68 61.28 68 66.56 68 72 C69.32 72 70.64 72 72 72 C72 77.28 72 82.56 72 88 C73.32 88 74.64 88 76 88 C76 93.28 76 98.56 76 104 C77.32 104 78.64 104 80 104 C80 109.28 80 114.56 80 120 C85.28 120 90.56 120 96 120 C96 118.68 96 117.36 96 116 C98.64 116 101.28 116 104 116 C104 114.68 104 113.36 104 112 C106.64 112 109.28 112 112 112 C112 110.68 112 109.36 112 108 C114.64 108 117.28 108 120 108 C120 106.68 120 105.36 120 104 C123.96 104 127.92 104 132 104 C132 102.68 132 101.36 132 100 C137.28 100 142.56 100 148 100 C148 98.68 148 97.36 148 96 C177.04 96 206.08 96 236 96 C236 97.32 236 98.64 236 100 C239.96 100 243.92 100 248 100 C248 101.32 248 102.64 248 104 C251.96 104 255.92 104 260 104 C260 105.32 260 106.64 260 108 C262.64 108 265.28 108 268 108 C268 109.32 268 110.64 268 112 C270.64 112 273.28 112 276 112 C276 113.32 276 114.64 276 116 C277.32 116 278.64 116 280 116 C280 117.32 280 118.64 280 120 C281.32 120 282.64 120 284 120 C284 121.32 284 122.64 284 124 C286.64 124 289.28 124 292 124 C292 125.32 292 126.64 292 128 C293.32 128 294.64 128 296 128 C296 129.32 296 130.64 296 132 C297.32 132 298.64 132 300 132 C300 133.32 300 134.64 300 136 C301.32 136 302.64 136 304 136 C304 137.32 304 138.64 304 140 C305.32 140 306.64 140 308 140 C308 141.32 308 142.64 308 144 C309.32 144 310.64 144 312 144 C312 145.32 312 146.64 312 148 C313.32 148 314.64 148 316 148 C316 150.64 316 153.28 316 156 C317.32 156 318.64 156 320 156 C320 157.32 320 158.64 320 160 C321.32 160 322.64 160 324 160 C324 162.64 324 165.28 324 168 C325.32 168 326.64 168 328 168 C328 171.96 328 175.92 328 180 C329.32 180 330.64 180 332 180 C332 194.52 332 209.04 332 224 C330.68 224 329.36 224 328 224 C328 227.96 328 231.92 328 236 C326.68 236 325.36 236 324 236 C324 238.64 324 241.28 324 244 C322.68 244 321.36 244 320 244 C320 245.32 320 246.64 320 248 C318.68 248 317.36 248 316 248 C316 249.32 316 250.64 316 252 C314.68 252 313.36 252 312 252 C312 253.32 312 254.64 312 256 C310.68 256 309.36 256 308 256 C308 257.32 308 258.64 308 260 C306.68 260 305.36 260 304 260 C304 261.32 304 262.64 304 264 C302.68 264 301.36 264 300 264 C300 265.32 300 266.64 300 268 C297.36 268 294.72 268 292 268 C292 269.32 292 270.64 292 272 C288.04 272 284.08 272 280 272 C280 273.32 280 274.64 280 276 C277.36 276 274.72 276 272 276 C272 277.32 272 278.64 272 280 C268.04 280 264.08 280 260 280 C260 281.32 260 282.64 260 284 C254.72 284 249.44 284 244 284 C244 285.32 244 286.64 244 288 C226.84 288 209.68 288 192 288 C192 286.68 192 285.36 192 284 C186.72 284 181.44 284 176 284 C176 282.68 176 281.36 176 280 C172.04 280 168.08 280 164 280 C164 278.68 164 277.36 164 276 C161.36 276 158.72 276 156 276 C156 274.68 156 273.36 156 272 C152.04 272 148.08 272 144 272 C144 270.68 144 269.36 144 268 C141.36 268 138.72 268 136 268 C136 266.68 136 265.36 136 264 C133.36 264 130.72 264 128 264 C128 262.68 128 261.36 128 260 C126.68 260 125.36 260 124 260 C124 258.68 124 257.36 124 256 C122.68 256 121.36 256 120 256 C120 254.68 120 253.36 120 252 C118.68 252 117.36 252 116 252 C116 250.68 116 249.36 116 248 C114.68 248 113.36 248 112 248 C112 246.68 112 245.36 112 244 C110.68 244 109.36 244 108 244 C108 242.68 108 241.36 108 240 C106.68 240 105.36 240 104 240 C104 238.68 104 237.36 104 236 C102.68 236 101.36 236 100 236 C100 234.68 100 233.36 100 232 C98.68 232 97.36 232 96 232 C96 228.04 96 224.08 96 220 C94.68 220 93.36 220 92 220 C92 218.68 92 217.36 92 216 C90.68 216 89.36 216 88 216 C88 213.36 88 210.72 88 208 C86.68 208 85.36 208 84 208 C84 205.36 84 202.72 84 200 C82.68 200 81.36 200 80 200 C80 197.36 80 194.72 80 192 C78.68 192 77.36 192 76 192 C76 189.36 76 186.72 76 184 C74.68 184 73.36 184 72 184 C72 181.36 72 178.72 72 176 C70.68 176 69.36 176 68 176 C68 172.04 68 168.08 68 164 C66.68 164 65.36 164 64 164 C64 160.04 64 156.08 64 152 C60.04 152 56.08 152 52 152 C52 153.32 52 154.64 52 156 C49.36 156 46.72 156 44 156 C44 157.32 44 158.64 44 160 C42.68 160 41.36 160 40 160 C40 161.32 40 162.64 40 164 C37.36 164 34.72 164 32 164 C32 165.32 32 166.64 32 168 C30.68 168 29.36 168 28 168 C28 169.32 28 170.64 28 172 C26.68 172 25.36 172 24 172 C24 173.32 24 174.64 24 176 C22.68 176 21.36 176 20 176 C20 177.32 20 178.64 20 180 C17.36 180 14.72 180 12 180 C12 181.32 12 182.64 12 184 C10.68 184 9.36 184 8 184 C8 185.32 8 186.64 8 188 C5.36 188 2.72 188 0 188 C0 189.32 0 190.64 0 192 C-1.32 192 -2.64 192 -4 192 C-4 193.32 -4 194.64 -4 196 C-5.32 196 -6.64 196 -8 196 C-8 197.32 -8 198.64 -8 200 C-9.32 200 -10.64 200 -12 200 C-12 201.32 -12 202.64 -12 204 C-13.32 204 -14.64 204 -16 204 C-16 205.32 -16 206.64 -16 208 C-17.32 208 -18.64 208 -20 208 C-20 209.32 -20 210.64 -20 212 C-22.64 212 -25.28 212 -28 212 C-28 213.32 -28 214.64 -28 216 C-29.32 216 -30.64 216 -32 216 C-32 217.32 -32 218.64 -32 220 C-33.32 220 -34.64 220 -36 220 C-36 217.36 -36 214.72 -36 212 C-34.68 212 -33.36 212 -32 212 C-32 210.68 -32 209.36 -32 208 C-30.68 208 -29.36 208 -28 208 C-28 206.68 -28 205.36 -28 204 C-26.68 204 -25.36 204 -24 204 C-24 202.68 -24 201.36 -24 200 C-22.68 200 -21.36 200 -20 200 C-20 198.68 -20 197.36 -20 196 C-18.68 196 -17.36 196 -16 196 C-16 194.68 -16 193.36 -16 192 C-14.68 192 -13.36 192 -12 192 C-12 190.68 -12 189.36 -12 188 C-10.68 188 -9.36 188 -8 188 C-8 186.68 -8 185.36 -8 184 C-6.68 184 -5.36 184 -4 184 C-4 182.68 -4 181.36 -4 180 C-2.68 180 -1.36 180 0 180 C0 178.68 0 177.36 0 176 C1.32 176 2.64 176 4 176 C4 174.68 4 173.36 4 172 C5.32 172 6.64 172 8 172 C8 170.68 8 169.36 8 168 C10.64 168 13.28 168 16 168 C16 166.68 16 165.36 16 164 C17.32 164 18.64 164 20 164 C20 162.68 20 161.36 20 160 C21.32 160 22.64 160 24 160 C24 158.68 24 157.36 24 156 C25.32 156 26.64 156 28 156 C28 154.68 28 153.36 28 152 C30.64 152 33.28 152 36 152 C36 150.68 36 149.36 36 148 C38.64 148 41.28 148 44 148 C44 146.68 44 145.36 44 144 C45.32 144 46.64 144 48 144 C48 142.68 48 141.36 48 140 C50.64 140 53.28 140 56 140 C56 138.68 56 137.36 56 136 C57.32 136 58.64 136 60 136 C60 132.04 60 128.08 60 124 C58.68 124 57.36 124 56 124 C56 117.4 56 110.8 56 104 C54.68 104 53.36 104 52 104 C52 98.72 52 93.44 52 88 C50.68 88 49.36 88 48 88 C48 82.72 48 77.44 48 72 C46.68 72 45.36 72 44 72 C44 65.4 44 58.8 44 52 C42.68 52 41.36 52 40 52 C40 48.04 40 44.08 40 40 C38.68 40 37.36 40 36 40 C36 37.36 36 34.72 36 32 C34.68 32 33.36 32 32 32 C32 29.36 32 26.72 32 24 C30.68 24 29.36 24 28 24 C28 22.68 28 21.36 28 20 C22.72 20 17.44 20 12 20 C12 21.32 12 22.64 12 24 C8.04 24 4.08 24 0 24 C0 25.32 0 26.64 0 28 C-2.64 28 -5.28 28 -8 28 C-8 29.32 -8 30.64 -8 32 C-10.64 32 -13.28 32 -16 32 C-16 33.32 -16 34.64 -16 36 C-17.32 36 -18.64 36 -20 36 C-20 37.32 -20 38.64 -20 40 C-22.64 40 -25.28 40 -28 40 C-28 41.32 -28 42.64 -28 44 C-29.32 44 -30.64 44 -32 44 C-32 45.32 -32 46.64 -32 48 C-33.32 48 -34.64 48 -36 48 C-36 49.32 -36 50.64 -36 52 C-38.64 52 -41.28 52 -44 52 C-44 53.32 -44 54.64 -44 56 C-45.32 56 -46.64 56 -48 56 C-48 57.32 -48 58.64 -48 60 C-50.64 60 -53.28 60 -56 60 C-56 61.32 -56 62.64 -56 64 C-57.32 64 -58.64 64 -60 64 C-60 65.32 -60 66.64 -60 68 C-61.32 68 -62.64 68 -64 68 C-64 69.32 -64 70.64 -64 72 C-66.64 72 -69.28 72 -72 72 C-72 73.32 -72 74.64 -72 76 C-73.32 76 -74.64 76 -76 76 C-76 77.32 -76 78.64 -76 80 C-77.32 80 -78.64 80 -80 80 C-80 81.32 -80 82.64 -80 84 C-81.32 84 -82.64 84 -84 84 C-84 85.32 -84 86.64 -84 88 C-85.32 88 -86.64 88 -88 88 C-88 89.32 -88 90.64 -88 92 C-89.32 92 -90.64 92 -92 92 C-92 93.32 -92 94.64 -92 96 C-94.64 96 -97.28 96 -100 96 C-100 97.32 -100 98.64 -100 100 C-101.32 100 -102.64 100 -104 100 C-104 101.32 -104 102.64 -104 104 C-105.32 104 -106.64 104 -108 104 C-108 105.32 -108 106.64 -108 108 C-109.32 108 -110.64 108 -112 108 C-112 109.32 -112 110.64 -112 112 C-113.32 112 -114.64 112 -116 112 C-116 113.32 -116 114.64 -116 116 C-117.32 116 -118.64 116 -120 116 C-120 117.32 -120 118.64 -120 120 C-121.32 120 -122.64 120 -124 120 C-124 122.64 -124 125.28 -124 128 C-125.32 128 -126.64 128 -128 128 C-128 129.32 -128 130.64 -128 132 C-129.32 132 -130.64 132 -132 132 C-132 133.32 -132 134.64 -132 136 C-133.32 136 -134.64 136 -136 136 C-136 137.32 -136 138.64 -136 140 C-137.32 140 -138.64 140 -140 140 C-140 141.32 -140 142.64 -140 144 C-141.32 144 -142.64 144 -144 144 C-144 145.32 -144 146.64 -144 148 C-145.32 148 -146.64 148 -148 148 C-148 150.64 -148 153.28 -148 156 C-149.32 156 -150.64 156 -152 156 C-152 157.32 -152 158.64 -152 160 C-153.32 160 -154.64 160 -156 160 C-156 161.32 -156 162.64 -156 164 C-157.32 164 -158.64 164 -160 164 C-160 166.64 -160 169.28 -160 172 C-161.32 172 -162.64 172 -164 172 C-164 173.32 -164 174.64 -164 176 C-165.32 176 -166.64 176 -168 176 C-168 177.32 -168 178.64 -168 180 C-169.32 180 -170.64 180 -172 180 C-172 181.32 -172 182.64 -172 184 C-173.32 184 -174.64 184 -176 184 C-176 186.64 -176 189.28 -176 192 C-177.32 192 -178.64 192 -180 192 C-180 194.64 -180 197.28 -180 200 C-181.32 200 -182.64 200 -184 200 C-184 201.32 -184 202.64 -184 204 C-185.32 204 -186.64 204 -188 204 C-188 206.64 -188 209.28 -188 212 C-189.32 212 -190.64 212 -192 212 C-192 214.64 -192 217.28 -192 220 C-193.32 220 -194.64 220 -196 220 C-196 221.32 -196 222.64 -196 224 C-197.32 224 -198.64 224 -200 224 C-200 226.64 -200 229.28 -200 232 C-201.32 232 -202.64 232 -204 232 C-204 234.64 -204 237.28 -204 240 C-205.32 240 -206.64 240 -208 240 C-208 242.64 -208 245.28 -208 248 C-209.32 248 -210.64 248 -212 248 C-212 249.32 -212 250.64 -212 252 C-213.32 252 -214.64 252 -216 252 C-216 254.64 -216 257.28 -216 260 C-217.32 260 -218.64 260 -220 260 C-220 261.32 -220 262.64 -220 264 C-221.32 264 -222.64 264 -224 264 C-224 266.64 -224 269.28 -224 272 C-225.32 272 -226.64 272 -228 272 C-228 275.96 -228 279.92 -228 284 C-229.32 284 -230.64 284 -232 284 C-232 285.32 -232 286.64 -232 288 C-233.32 288 -234.64 288 -236 288 C-236 290.64 -236 293.28 -236 296 C-237.32 296 -238.64 296 -240 296 C-240 297.32 -240 298.64 -240 300 C-241.32 300 -242.64 300 -244 300 C-244 297.36 -244 294.72 -244 292 C-242.68 292 -241.36 292 -240 292 C-240 288.04 -240 284.08 -240 280 C-238.68 280 -237.36 280 -236 280 C-236 277.36 -236 274.72 -236 272 C-234.68 272 -233.36 272 -232 272 C-232 269.36 -232 266.72 -232 264 C-230.68 264 -229.36 264 -228 264 C-228 262.68 -228 261.36 -228 260 C-226.68 260 -225.36 260 -224 260 C-224 257.36 -224 254.72 -224 252 C-222.68 252 -221.36 252 -220 252 C-220 249.36 -220 246.72 -220 244 C-218.68 244 -217.36 244 -216 244 C-216 241.36 -216 238.72 -216 236 C-214.68 236 -213.36 236 -212 236 C-212 233.36 -212 230.72 -212 228 C-210.68 228 -209.36 228 -208 228 C-208 224.04 -208 220.08 -208 216 C-206.68 216 -205.36 216 -204 216 C-204 214.68 -204 213.36 -204 212 C-202.68 212 -201.36 212 -200 212 C-200 209.36 -200 206.72 -200 204 C-198.68 204 -197.36 204 -196 204 C-196 202.68 -196 201.36 -196 200 C-194.68 200 -193.36 200 -192 200 C-192 197.36 -192 194.72 -192 192 C-190.68 192 -189.36 192 -188 192 C-188 189.36 -188 186.72 -188 184 C-186.68 184 -185.36 184 -184 184 C-184 181.36 -184 178.72 -184 176 C-182.68 176 -181.36 176 -180 176 C-180 174.68 -180 173.36 -180 172 C-178.68 172 -177.36 172 -176 172 C-176 169.36 -176 166.72 -176 164 C-174.68 164 -173.36 164 -172 164 C-172 161.36 -172 158.72 -172 156 C-170.68 156 -169.36 156 -168 156 C-168 154.68 -168 153.36 -168 152 C-166.68 152 -165.36 152 -164 152 C-164 150.68 -164 149.36 -164 148 C-162.68 148 -161.36 148 -160 148 C-160 146.68 -160 145.36 -160 144 C-158.68 144 -157.36 144 -156 144 C-156 141.36 -156 138.72 -156 136 C-154.68 136 -153.36 136 -152 136 C-152 134.68 -152 133.36 -152 132 C-150.68 132 -149.36 132 -148 132 C-148 129.36 -148 126.72 -148 124 C-146.68 124 -145.36 124 -144 124 C-144 122.68 -144 121.36 -144 120 C-142.68 120 -141.36 120 -140 120 C-140 118.68 -140 117.36 -140 116 C-138.68 116 -137.36 116 -136 116 C-136 114.68 -136 113.36 -136 112 C-134.68 112 -133.36 112 -132 112 C-132 110.68 -132 109.36 -132 108 C-130.68 108 -129.36 108 -128 108 C-128 106.68 -128 105.36 -128 104 C-126.68 104 -125.36 104 -124 104 C-124 102.68 -124 101.36 -124 100 C-122.68 100 -121.36 100 -120 100 C-120 97.36 -120 94.72 -120 92 C-118.68 92 -117.36 92 -116 92 C-116 90.68 -116 89.36 -116 88 C-114.68 88 -113.36 88 -112 88 C-112 86.68 -112 85.36 -112 84 C-110.68 84 -109.36 84 -108 84 C-108 82.68 -108 81.36 -108 80 C-106.68 80 -105.36 80 -104 80 C-104 78.68 -104 77.36 -104 76 C-102.68 76 -101.36 76 -100 76 C-100 74.68 -100 73.36 -100 72 C-98.68 72 -97.36 72 -96 72 C-96 70.68 -96 69.36 -96 68 C-93.36 68 -90.72 68 -88 68 C-88 66.68 -88 65.36 -88 64 C-86.68 64 -85.36 64 -84 64 C-84 62.68 -84 61.36 -84 60 C-82.68 60 -81.36 60 -80 60 C-80 58.68 -80 57.36 -80 56 C-78.68 56 -77.36 56 -76 56 C-76 54.68 -76 53.36 -76 52 C-74.68 52 -73.36 52 -72 52 C-72 50.68 -72 49.36 -72 48 C-70.68 48 -69.36 48 -68 48 C-68 46.68 -68 45.36 -68 44 C-65.36 44 -62.72 44 -60 44 C-60 42.68 -60 41.36 -60 40 C-58.68 40 -57.36 40 -56 40 C-56 38.68 -56 37.36 -56 36 C-54.68 36 -53.36 36 -52 36 C-52 34.68 -52 33.36 -52 32 C-49.36 32 -46.72 32 -44 32 C-44 30.68 -44 29.36 -44 28 C-42.68 28 -41.36 28 -40 28 C-40 26.68 -40 25.36 -40 24 C-37.36 24 -34.72 24 -32 24 C-32 22.68 -32 21.36 -32 20 C-30.68 20 -29.36 20 -28 20 C-28 18.68 -28 17.36 -28 16 C-26.68 16 -25.36 16 -24 16 C-24 14.68 -24 13.36 -24 12 C-21.36 12 -18.72 12 -16 12 C-16 10.68 -16 9.36 -16 8 C-13.36 8 -10.72 8 -8 8 C-8 6.68 -8 5.36 -8 4 C-5.36 4 -2.72 4 0 4 C0 2.68 0 1.36 0 0 Z " fill="#2397C4" transform="translate(308,46)"/>
<path d="M0 0 C23.76 0 47.52 0 72 0 C72 1.32 72 2.64 72 4 C79.92 4 87.84 4 96 4 C96 5.32 96 6.64 96 8 C98.64 8 101.28 8 104 8 C104 9.32 104 10.64 104 12 C106.64 12 109.28 12 112 12 C112 13.32 112 14.64 112 16 C113.32 16 114.64 16 116 16 C116 17.32 116 18.64 116 20 C117.32 20 118.64 20 120 20 C120 21.32 120 22.64 120 24 C122.64 24 125.28 24 128 24 C128 25.32 128 26.64 128 28 C129.32 28 130.64 28 132 28 C132 29.32 132 30.64 132 32 C133.32 32 134.64 32 136 32 C136 33.32 136 34.64 136 36 C137.32 36 138.64 36 140 36 C140 37.32 140 38.64 140 40 C141.32 40 142.64 40 144 40 C144 41.32 144 42.64 144 44 C145.32 44 146.64 44 148 44 C148 46.64 148 49.28 148 52 C149.32 52 150.64 52 152 52 C152 55.96 152 59.92 152 64 C153.32 64 154.64 64 156 64 C156 77.2 156 90.4 156 104 C154.68 104 153.36 104 152 104 C152 106.64 152 109.28 152 112 C150.68 112 149.36 112 148 112 C148 114.64 148 117.28 148 120 C146.68 120 145.36 120 144 120 C144 121.32 144 122.64 144 124 C142.68 124 141.36 124 140 124 C140 125.32 140 126.64 140 128 C137.36 128 134.72 128 132 128 C132 129.32 132 130.64 132 132 C129.36 132 126.72 132 124 132 C124 133.32 124 134.64 124 136 C121.36 136 118.72 136 116 136 C116 137.32 116 138.64 116 140 C112.04 140 108.08 140 104 140 C104 141.32 104 142.64 104 144 C82.88 144 61.76 144 40 144 C40 142.68 40 141.36 40 140 C36.04 140 32.08 140 28 140 C28 138.68 28 137.36 28 136 C24.04 136 20.08 136 16 136 C16 134.68 16 133.36 16 132 C13.36 132 10.72 132 8 132 C8 130.68 8 129.36 8 128 C5.36 128 2.72 128 0 128 C0 126.68 0 125.36 0 124 C-1.32 124 -2.64 124 -4 124 C-4 122.68 -4 121.36 -4 120 C-6.64 120 -9.28 120 -12 120 C-12 118.68 -12 117.36 -12 116 C-13.32 116 -14.64 116 -16 116 C-16 114.68 -16 113.36 -16 112 C-17.32 112 -18.64 112 -20 112 C-20 110.68 -20 109.36 -20 108 C-21.32 108 -22.64 108 -24 108 C-24 105.36 -24 102.72 -24 100 C-25.32 100 -26.64 100 -28 100 C-28 98.68 -28 97.36 -28 96 C-29.32 96 -30.64 96 -32 96 C-32 93.36 -32 90.72 -32 88 C-33.32 88 -34.64 88 -36 88 C-36 86.68 -36 85.36 -36 84 C-37.32 84 -38.64 84 -40 84 C-40 81.36 -40 78.72 -40 76 C-41.32 76 -42.64 76 -44 76 C-44 73.36 -44 70.72 -44 68 C-45.32 68 -46.64 68 -48 68 C-48 65.36 -48 62.72 -48 60 C-49.32 60 -50.64 60 -52 60 C-52 53.4 -52 46.8 -52 40 C-53.32 40 -54.64 40 -56 40 C-56 37.36 -56 34.72 -56 32 C-57.32 32 -58.64 32 -60 32 C-60 28.04 -60 24.08 -60 20 C-58.68 20 -57.36 20 -56 20 C-56 18.68 -56 17.36 -56 16 C-53.36 16 -50.72 16 -48 16 C-48 14.68 -48 13.36 -48 12 C-45.36 12 -42.72 12 -40 12 C-40 10.68 -40 9.36 -40 8 C-36.04 8 -32.08 8 -28 8 C-28 6.68 -28 5.36 -28 4 C-18.76 4 -9.52 4 0 4 C0 2.68 0 1.36 0 0 Z " fill="#F1F3F6" transform="translate(456,162)"/>
<path d="M0 0 C1.32 0 2.64 0 4 0 C4 2.64 4 5.28 4 8 C5.32 8 6.64 8 8 8 C8 9.32 8 10.64 8 12 C6.68 12 5.36 12 4 12 C4 14.64 4 17.28 4 20 C2.68 20 1.36 20 0 20 C0 21.32 0 22.64 0 24 C-1.32 24 -2.64 24 -4 24 C-4 26.64 -4 29.28 -4 32 C-5.32 32 -6.64 32 -8 32 C-8 34.64 -8 37.28 -8 40 C-9.32 40 -10.64 40 -12 40 C-12 42.64 -12 45.28 -12 48 C-13.32 48 -14.64 48 -16 48 C-16 49.32 -16 50.64 -16 52 C-17.32 52 -18.64 52 -20 52 C-20 54.64 -20 57.28 -20 60 C-21.32 60 -22.64 60 -24 60 C-24 61.32 -24 62.64 -24 64 C-25.32 64 -26.64 64 -28 64 C-28 66.64 -28 69.28 -28 72 C-29.32 72 -30.64 72 -32 72 C-32 75.96 -32 79.92 -32 84 C-33.32 84 -34.64 84 -36 84 C-36 85.32 -36 86.64 -36 88 C-37.32 88 -38.64 88 -40 88 C-40 90.64 -40 93.28 -40 96 C-41.32 96 -42.64 96 -44 96 C-44 97.32 -44 98.64 -44 100 C-45.32 100 -46.64 100 -48 100 C-48 97.36 -48 94.72 -48 92 C-46.68 92 -45.36 92 -44 92 C-44 88.04 -44 84.08 -44 80 C-42.68 80 -41.36 80 -40 80 C-40 77.36 -40 74.72 -40 72 C-38.68 72 -37.36 72 -36 72 C-36 69.36 -36 66.72 -36 64 C-34.68 64 -33.36 64 -32 64 C-32 62.68 -32 61.36 -32 60 C-30.68 60 -29.36 60 -28 60 C-28 57.36 -28 54.72 -28 52 C-26.68 52 -25.36 52 -24 52 C-24 49.36 -24 46.72 -24 44 C-22.68 44 -21.36 44 -20 44 C-20 41.36 -20 38.72 -20 36 C-18.68 36 -17.36 36 -16 36 C-16 33.36 -16 30.72 -16 28 C-14.68 28 -13.36 28 -12 28 C-12 24.04 -12 20.08 -12 16 C-10.68 16 -9.36 16 -8 16 C-8 14.68 -8 13.36 -8 12 C-6.68 12 -5.36 12 -4 12 C-4 9.36 -4 6.72 -4 4 C-2.68 4 -1.36 4 0 4 C0 2.68 0 1.36 0 0 Z " fill="#44A3CA" transform="translate(112,246)"/>
<path d="M0 0 C2.64 0 5.28 0 8 0 C8 1.32 8 2.64 8 4 C10.64 4 13.28 4 16 4 C16 5.32 16 6.64 16 8 C14.68 8 13.36 8 12 8 C12 9.32 12 10.64 12 12 C9.36 12 6.72 12 4 12 C4 13.32 4 14.64 4 16 C2.68 16 1.36 16 0 16 C0 17.32 0 18.64 0 20 C-2.64 20 -5.28 20 -8 20 C-8 21.32 -8 22.64 -8 24 C-9.32 24 -10.64 24 -12 24 C-12 25.32 -12 26.64 -12 28 C-13.32 28 -14.64 28 -16 28 C-16 29.32 -16 30.64 -16 32 C-17.32 32 -18.64 32 -20 32 C-20 33.32 -20 34.64 -20 36 C-21.32 36 -22.64 36 -24 36 C-24 37.32 -24 38.64 -24 40 C-25.32 40 -26.64 40 -28 40 C-28 41.32 -28 42.64 -28 44 C-30.64 44 -33.28 44 -36 44 C-36 45.32 -36 46.64 -36 48 C-37.32 48 -38.64 48 -40 48 C-40 49.32 -40 50.64 -40 52 C-41.32 52 -42.64 52 -44 52 C-44 49.36 -44 46.72 -44 44 C-42.68 44 -41.36 44 -40 44 C-40 42.68 -40 41.36 -40 40 C-38.68 40 -37.36 40 -36 40 C-36 38.68 -36 37.36 -36 36 C-34.68 36 -33.36 36 -32 36 C-32 34.68 -32 33.36 -32 32 C-30.68 32 -29.36 32 -28 32 C-28 30.68 -28 29.36 -28 28 C-26.68 28 -25.36 28 -24 28 C-24 26.68 -24 25.36 -24 24 C-22.68 24 -21.36 24 -20 24 C-20 22.68 -20 21.36 -20 20 C-18.68 20 -17.36 20 -16 20 C-16 18.68 -16 17.36 -16 16 C-14.68 16 -13.36 16 -12 16 C-12 14.68 -12 13.36 -12 12 C-10.68 12 -9.36 12 -8 12 C-8 10.68 -8 9.36 -8 8 C-6.68 8 -5.36 8 -4 8 C-4 6.68 -4 5.36 -4 4 C-2.68 4 -1.36 4 0 4 C0 2.68 0 1.36 0 0 Z " fill="#4AA7CC" transform="translate(316,214)"/>
<path d="M0 0 C1.32 0 2.64 0 4 0 C4 1.32 4 2.64 4 4 C5.32 4 6.64 4 8 4 C8 5.32 8 6.64 8 8 C6.68 8 5.36 8 4 8 C4 11.96 4 15.92 4 20 C2.68 20 1.36 20 0 20 C0 21.32 0 22.64 0 24 C-1.32 24 -2.64 24 -4 24 C-4 26.64 -4 29.28 -4 32 C-5.32 32 -6.64 32 -8 32 C-8 33.32 -8 34.64 -8 36 C-9.32 36 -10.64 36 -12 36 C-12 33.36 -12 30.72 -12 28 C-10.68 28 -9.36 28 -8 28 C-8 24.04 -8 20.08 -8 16 C-6.68 16 -5.36 16 -4 16 C-4 13.36 -4 10.72 -4 8 C-2.68 8 -1.36 8 0 8 C0 5.36 0 2.72 0 0 Z " fill="#97C8DF" transform="translate(76,310)"/>
<path d="M0 0 C21.12 0 42.24 0 64 0 C64 1.32 64 2.64 64 4 C42.88 4 21.76 4 0 4 C0 2.68 0 1.36 0 0 Z " fill="#B9D8E8" transform="translate(496,302)"/>
<path d="M0 0 C1.32 0 2.64 0 4 0 C4 3.96 4 7.92 4 12 C5.32 12 6.64 12 8 12 C8 26.52 8 41.04 8 56 C6.68 56 5.36 56 4 56 C4 42.8 4 29.6 4 16 C2.68 16 1.36 16 0 16 C0 10.72 0 5.44 0 0 Z " fill="#76B9D6" transform="translate(632,214)"/>
<path d="M0 0 C19.8 0 39.6 0 60 0 C60 1.32 60 2.64 60 4 C40.2 4 20.4 4 0 4 C0 2.68 0 1.36 0 0 Z " fill="#97C8DF" transform="translate(460,158)"/>
<path d="M0 0 C17.16 0 34.32 0 52 0 C52 1.32 52 2.64 52 4 C34.84 4 17.68 4 0 4 C0 2.68 0 1.36 0 0 Z " fill="#66B1D2" transform="translate(500,330)"/>
<path d="M0 0 C1.32 0 2.64 0 4 0 C4 1.32 4 2.64 4 4 C5.32 4 6.64 4 8 4 C8 5.32 8 6.64 8 8 C6.68 8 5.36 8 4 8 C4 9.32 4 10.64 4 12 C2.68 12 1.36 12 0 12 C0 13.32 0 14.64 0 16 C-2.64 16 -5.28 16 -8 16 C-8 17.32 -8 18.64 -8 20 C-9.32 20 -10.64 20 -12 20 C-12 21.32 -12 22.64 -12 24 C-13.32 24 -14.64 24 -16 24 C-16 21.36 -16 18.72 -16 16 C-14.68 16 -13.36 16 -12 16 C-12 14.68 -12 13.36 -12 12 C-10.68 12 -9.36 12 -8 12 C-8 10.68 -8 9.36 -8 8 C-6.68 8 -5.36 8 -4 8 C-4 6.68 -4 5.36 -4 4 C-2.68 4 -1.36 4 0 4 C0 2.68 0 1.36 0 0 Z " fill="#6AB3D3" transform="translate(288,242)"/>
<path d="M0 0 C15.84 0 31.68 0 48 0 C48 1.32 48 2.64 48 4 C32.16 4 16.32 4 0 4 C0 2.68 0 1.36 0 0 Z " fill="#99C8E0" transform="translate(476,138)"/>
<path d="M0 0 C3.96 0 7.92 0 12 0 C12 1.32 12 2.64 12 4 C10.68 4 9.36 4 8 4 C8 5.32 8 6.64 8 8 C6.68 8 5.36 8 4 8 C4 9.32 4 10.64 4 12 C2.68 12 1.36 12 0 12 C0 13.32 0 14.64 0 16 C-2.64 16 -5.28 16 -8 16 C-8 13.36 -8 10.72 -8 8 C-6.68 8 -5.36 8 -4 8 C-4 6.68 -4 5.36 -4 4 C-2.68 4 -1.36 4 0 4 C0 2.68 0 1.36 0 0 Z " fill="#2F9BC6" transform="translate(300,230)"/>
<path d="M0 0 C1.32 0 2.64 0 4 0 C4 5.28 4 10.56 4 16 C5.32 16 6.64 16 8 16 C8 22.6 8 29.2 8 36 C6.68 36 5.36 36 4 36 C4 30.72 4 25.44 4 20 C2.68 20 1.36 20 0 20 C0 13.4 0 6.8 0 0 Z " fill="#C7DFEC" transform="translate(356,134)"/>
<path d="M0 0 C1.32 0 2.64 0 4 0 C4.33 3.96 4.66 7.92 5 12 C5.99 12 6.98 12 8 12 C8 18.6 8 25.2 8 32 C6.68 32 5.36 32 4 32 C4 26.72 4 21.44 4 16 C2.68 16 1.36 16 0 16 C0 10.72 0 5.44 0 0 Z " fill="#D3E5EF" transform="translate(376,102)"/>
<path d="M0 0 C1.32 0 2.64 0 4 0 C4 1.32 4 2.64 4 4 C5.32 4 6.64 4 8 4 C8 5.32 8 6.64 8 8 C6.68 8 5.36 8 4 8 C4 11.96 4 15.92 4 20 C2.68 20 1.36 20 0 20 C0 18.68 0 17.36 0 16 C-1.32 16 -2.64 16 -4 16 C-4 13.36 -4 10.72 -4 8 C-2.68 8 -1.36 8 0 8 C0 5.36 0 2.72 0 0 Z " fill="#A7CFE3" transform="translate(76,310)"/>
<path d="M0 0 C1.32 0 2.64 0 4 0 C4 1.32 4 2.64 4 4 C5.32 4 6.64 4 8 4 C8 6.64 8 9.28 8 12 C6.68 12 5.36 12 4 12 C4 14.64 4 17.28 4 20 C2.68 20 1.36 20 0 20 C0 17.36 0 14.72 0 12 C-1.32 12 -2.64 12 -4 12 C-4 10.68 -4 9.36 -4 8 C-2.68 8 -1.36 8 0 8 C0 5.36 0 2.72 0 0 Z " fill="#5FAED1" transform="translate(96,274)"/>
<path d="M0 0 C1.32 0 2.64 0 4 0 C4 10.56 4 21.12 4 32 C2.68 32 1.36 32 0 32 C0 21.44 0 10.88 0 0 Z " fill="#7ABAD6" transform="translate(612,230)"/>
<path d="M0 0 C5.28 0 10.56 0 16 0 C16 1.32 16 2.64 16 4 C12.04 4 8.08 4 4 4 C4 5.32 4 6.64 4 8 C-1.28 8 -6.56 8 -12 8 C-12 6.68 -12 5.36 -12 4 C-8.04 4 -4.08 4 0 4 C0 2.68 0 1.36 0 0 Z " fill="#349DC7" transform="translate(440,146)"/>
<path d="M0 0 C1.32 0 2.64 0 4 0 C4 2.64 4 5.28 4 8 C5.32 8 6.64 8 8 8 C8 11.96 8 15.92 8 20 C6.68 20 5.36 20 4 20 C4 18.68 4 17.36 4 16 C2.68 16 1.36 16 0 16 C0 10.72 0 5.44 0 0 Z " fill="#3DA1C9" transform="translate(396,194)"/>
<path d="M0 0 C3.96 0 7.92 0 12 0 C12 1.32 12 2.64 12 4 C9.36 4 6.72 4 4 4 C4 5.32 4 6.64 4 8 C-1.28 8 -6.56 8 -12 8 C-12 6.68 -12 5.36 -12 4 C-8.04 4 -4.08 4 0 4 C0 2.68 0 1.36 0 0 Z " fill="#CFE3EE" transform="translate(428,166)"/>
<path d="M0 0 C1.32 0 2.64 0 4 0 C4 7.92 4 15.84 4 24 C2.68 24.33 1.36 24.66 0 25 C0 16.75 0 8.5 0 0 Z " fill="#DDEAF1" transform="translate(640,238)"/>
<path d="M0 0 C7.92 0 15.84 0 24 0 C24 1.32 24 2.64 24 4 C16.08 4 8.16 4 0 4 C0 2.68 0 1.36 0 0 Z " fill="#B3D5E6" transform="translate(496,302)"/>
<path d="M0 0 C1.32 0 2.64 0 4 0 C4 3.96 4 7.92 4 12 C2.68 12 1.36 12 0 12 C0 13.32 0 14.64 0 16 C-1.32 16 -2.64 16 -4 16 C-4 12.04 -4 8.08 -4 4 C-2.68 4 -1.36 4 0 4 C0 2.68 0 1.36 0 0 Z " fill="#3EA1C9" transform="translate(92,286)"/>
<path d="M0 0 C1.32 0 2.64 0 4 0 C4 1.32 4 2.64 4 4 C5.32 4 6.64 4 8 4 C8 5.32 8 6.64 8 8 C6.68 8 5.36 8 4 8 C4 9.32 4 10.64 4 12 C1.36 12 -1.28 12 -4 12 C-4 9.36 -4 6.72 -4 4 C-2.68 4 -1.36 4 0 4 C0 2.68 0 1.36 0 0 Z " fill="#4DA7CC" transform="translate(288,242)"/>
<path d="M0 0 C2.64 0 5.28 0 8 0 C8 1.32 8 2.64 8 4 C6.68 4 5.36 4 4 4 C4 5.32 4 6.64 4 8 C2.68 8 1.36 8 0 8 C0 9.32 0 10.64 0 12 C-2.64 12 -5.28 12 -8 12 C-8 10.68 -8 9.36 -8 8 C-6.68 8 -5.36 8 -4 8 C-4 6.68 -4 5.36 -4 4 C-2.68 4 -1.36 4 0 4 C0 2.68 0 1.36 0 0 Z " fill="#AED4E5" transform="translate(208,142)"/>
<path d="M0 0 C2.64 0 5.28 0 8 0 C8 1.32 8 2.64 8 4 C6.68 4 5.36 4 4 4 C4 5.32 4 6.64 4 8 C2.68 8 1.36 8 0 8 C0 9.32 0 10.64 0 12 C-2.64 12 -5.28 12 -8 12 C-8 10.68 -8 9.36 -8 8 C-6.68 8 -5.36 8 -4 8 C-4 6.68 -4 5.36 -4 4 C-2.68 4 -1.36 4 0 4 C0 2.68 0 1.36 0 0 Z " fill="#60AFD1" transform="translate(212,114)"/>
<path d="M0 0 C1.32 0 2.64 0 4 0 C4 3.96 4 7.92 4 12 C1.36 12 -1.28 12 -4 12 C-4 9.36 -4 6.72 -4 4 C-2.68 4 -1.36 4 0 4 C0 2.68 0 1.36 0 0 Z " fill="#349EC7" transform="translate(104,266)"/>
<path d="M0 0 C6.6 0 13.2 0 20 0 C20 1.32 20 2.64 20 4 C13.4 4 6.8 4 0 4 C0 2.68 0 1.36 0 0 Z " fill="#6EB4D4" transform="translate(460,158)"/>
<path d="M0 0 C6.6 0 13.2 0 20 0 C20 1.32 20 2.64 20 4 C13.4 4 6.8 4 0 4 C0 2.68 0 1.36 0 0 Z " fill="#7CBBD8" transform="translate(524,142)"/>
<path d="M0 0 C6.6 0 13.2 0 20 0 C20 1.32 20 2.64 20 4 C13.4 4 6.8 4 0 4 C0 2.68 0 1.36 0 0 Z " fill="#6CB4D3" transform="translate(456,142)"/>
<path d="M0 0 C1.32 0 2.64 0 4 0 C4 6.6 4 13.2 4 20 C2.68 20 1.36 20 0 20 C0 13.4 0 6.8 0 0 Z " fill="#E0EBF2" transform="translate(356,134)"/>
<path d="M0 0 C6.6 0 13.2 0 20 0 C20 1.32 20 2.64 20 4 C13.4 4 6.8 4 0 4 C0 2.68 0 1.36 0 0 Z " fill="#89C1DB" transform="translate(320,42)"/>
<path d="M0 0 C5.28 0 10.56 0 16 0 C16 1.32 16 2.64 16 4 C10.72 4 5.44 4 0 4 C0 2.68 0 1.36 0 0 Z " fill="#42A2CA" transform="translate(552,326)"/>
<path d="M0 0 C1.32 0 2.64 0 4 0 C4 1.32 4 2.64 4 4 C5.32 4 6.64 4 8 4 C8 5.32 8 6.64 8 8 C6.68 8 5.36 8 4 8 C4 9.32 4 10.64 4 12 C2.68 12 1.36 12 0 12 C0 8.04 0 4.08 0 0 Z " fill="#81BDD9" transform="translate(76,310)"/>
<path d="M0 0 C5.28 0 10.56 0 16 0 C16 1.32 16 2.64 16 4 C10.72 4 5.44 4 0 4 C0 2.68 0 1.36 0 0 Z " fill="#48A3CB" transform="translate(520,306)"/>
<path d="M0 0 C5.28 0 10.56 0 16 0 C16 1.32 16 2.64 16 4 C10.72 4 5.44 4 0 4 C0 2.68 0 1.36 0 0 Z " fill="#CAE1EC" transform="translate(520,302)"/>
<path d="M0 0 C1.32 0 2.64 0 4 0 C4 1.32 4 2.64 4 4 C5.32 4 6.64 4 8 4 C8 6.64 8 9.28 8 12 C6.68 12 5.36 12 4 12 C4 10.68 4 9.36 4 8 C2.68 8 1.36 8 0 8 C0 5.36 0 2.72 0 0 Z " fill="#86C0DA" transform="translate(396,262)"/>
<path d="M0 0 C1.32 0 2.64 0 4 0 C4 5.28 4 10.56 4 16 C2.68 16 1.36 16 0 16 C0 10.72 0 5.44 0 0 Z " fill="#4AA5CB" transform="translate(632,214)"/>
<path d="M0 0 C1.32 0 2.64 0 4 0 C4 1.32 4 2.64 4 4 C5.32 4 6.64 4 8 4 C8 6.64 8 9.28 8 12 C6.68 12 5.36 12 4 12 C4 10.68 4 9.36 4 8 C2.68 8 1.36 8 0 8 C0 5.36 0 2.72 0 0 Z " fill="#A7CFE3" transform="translate(596,202)"/>
<path d="M0 0 C2.64 0 5.28 0 8 0 C8 1.32 8 2.64 8 4 C6.68 4 5.36 4 4 4 C4 5.32 4 6.64 4 8 C1.36 8 -1.28 8 -4 8 C-4 6.68 -4 5.36 -4 4 C-2.68 4 -1.36 4 0 4 C0 2.68 0 1.36 0 0 Z " fill="#47A4CB" transform="translate(336,198)"/>
<path d="M0 0 C2.64 0 5.28 0 8 0 C8 1.32 8 2.64 8 4 C9.32 4 10.64 4 12 4 C12 5.32 12 6.64 12 8 C9.36 8 6.72 8 4 8 C4 6.68 4 5.36 4 4 C2.68 4 1.36 4 0 4 C0 2.68 0 1.36 0 0 Z " fill="#ADD2E4" transform="translate(588,162)"/>
<path d="M0 0 C5.28 0 10.56 0 16 0 C16 1.32 16 2.64 16 4 C10.72 4 5.44 4 0 4 C0 2.68 0 1.36 0 0 Z " fill="#6DB5D3" transform="translate(528,162)"/>
<path d="M0 0 C5.28 0 10.56 0 16 0 C16 1.32 16 2.64 16 4 C10.72 4 5.44 4 0 4 C0 2.68 0 1.36 0 0 Z " fill="#8BC1DC" transform="translate(440,162)"/>
<path d="M0 0 C5.28 0 10.56 0 16 0 C16 1.32 16 2.64 16 4 C10.72 4 5.44 4 0 4 C0 2.68 0 1.36 0 0 Z " fill="#A5CFE3" transform="translate(388,162)"/>
<path d="M0 0 C5.28 0 10.56 0 16 0 C16 1.32 16 2.64 16 4 C10.72 4 5.44 4 0 4 C0 2.68 0 1.36 0 0 Z " fill="#359DC7" transform="translate(520,158)"/>
<path d="M0 0 C5.28 0 10.56 0 16 0 C16 1.32 16 2.64 16 4 C10.72 4 5.44 4 0 4 C0 2.68 0 1.36 0 0 Z " fill="#52A9CE" transform="translate(440,146)"/>
<path d="M0 0 C5.28 0 10.56 0 16 0 C16 1.32 16 2.64 16 4 C10.72 4 5.44 4 0 4 C0 2.68 0 1.36 0 0 Z " fill="#369DC7" transform="translate(476,142)"/>
<path d="M0 0 C5.28 0 10.56 0 16 0 C16 1.32 16 2.64 16 4 C10.72 4 5.44 4 0 4 C0 2.68 0 1.36 0 0 Z " fill="#E6EEF4" transform="translate(524,138)"/>
<path d="M0 0 C5.28 0 10.56 0 16 0 C16 1.32 16 2.64 16 4 C10.72 4 5.44 4 0 4 C0 2.68 0 1.36 0 0 Z " fill="#AAD0E3" transform="translate(476,138)"/>
<path d="M0 0 C2.64 0 5.28 0 8 0 C8 1.32 8 2.64 8 4 C6.68 4 5.36 4 4 4 C4 5.32 4 6.64 4 8 C1.36 8 -1.28 8 -4 8 C-4 6.68 -4 5.36 -4 4 C-2.68 4 -1.36 4 0 4 C0 2.68 0 1.36 0 0 Z " fill="#CBE1ED" transform="translate(236,118)"/>
<path d="M0 0 C2.64 0 5.28 0 8 0 C8 1.32 8 2.64 8 4 C6.68 4 5.36 4 4 4 C4 5.32 4 6.64 4 8 C1.36 8 -1.28 8 -4 8 C-4 6.68 -4 5.36 -4 4 C-2.68 4 -1.36 4 0 4 C0 2.68 0 1.36 0 0 Z " fill="#CDE2ED" transform="translate(252,106)"/>
<path d="M0 0 C1.32 0 2.64 0 4 0 C4 5.28 4 10.56 4 16 C2.68 16 1.36 16 0 16 C0 10.72 0 5.44 0 0 Z " fill="#B6D7E7" transform="translate(376,102)"/>
<path d="M0 0 C2.64 0 5.28 0 8 0 C8 1.32 8 2.64 8 4 C6.68 4 5.36 4 4 4 C4 5.32 4 6.64 4 8 C1.36 8 -1.28 8 -4 8 C-4 6.68 -4 5.36 -4 4 C-2.68 4 -1.36 4 0 4 C0 2.68 0 1.36 0 0 Z " fill="#3DA1C9" transform="translate(240,90)"/>
<path d="M0 0 C1.32 0 2.64 0 4 0 C4 5.28 4 10.56 4 16 C2.68 16 1.36 16 0 16 C0 10.72 0 5.44 0 0 Z " fill="#A7CFE3" transform="translate(372,86)"/>
<path d="M0 0 C2.64 0 5.28 0 8 0 C8 1.32 8 2.64 8 4 C6.68 4 5.36 4 4 4 C4 5.32 4 6.64 4 8 C1.36 8 -1.28 8 -4 8 C-4 6.68 -4 5.36 -4 4 C-2.68 4 -1.36 4 0 4 C0 2.68 0 1.36 0 0 Z " fill="#CEE2EE" transform="translate(280,86)"/>
<path d="M0 0 C2.64 0 5.28 0 8 0 C8 1.32 8 2.64 8 4 C6.68 4 5.36 4 4 4 C4 5.32 4 6.64 4 8 C1.36 8 -1.28 8 -4 8 C-4 6.68 -4 5.36 -4 4 C-2.68 4 -1.36 4 0 4 C0 2.68 0 1.36 0 0 Z " fill="#C8DFEC" transform="translate(292,78)"/>
<path d="M0 0 C2.64 0 5.28 0 8 0 C8 1.32 8 2.64 8 4 C6.68 4 5.36 4 4 4 C4 5.32 4 6.64 4 8 C1.36 8 -1.28 8 -4 8 C-4 6.68 -4 5.36 -4 4 C-2.68 4 -1.36 4 0 4 C0 2.68 0 1.36 0 0 Z " fill="#44A4CB" transform="translate(256,78)"/>
<path d="M0 0 C2.64 0 5.28 0 8 0 C8 1.32 8 2.64 8 4 C6.68 4 5.36 4 4 4 C4 5.32 4 6.64 4 8 C1.36 8 -1.28 8 -4 8 C-4 6.68 -4 5.36 -4 4 C-2.68 4 -1.36 4 0 4 C0 2.68 0 1.36 0 0 Z " fill="#52A9CD" transform="translate(284,58)"/>
<path d="M0 0 C3.96 0 7.92 0 12 0 C12 1.32 12 2.64 12 4 C8.04 4 4.08 4 0 4 C0 2.68 0 1.36 0 0 Z " fill="#51A9CD" transform="translate(484,326)"/>
<path d="M0 0 C3.96 0 7.92 0 12 0 C12 1.32 12 2.64 12 4 C8.04 4 4.08 4 0 4 C0 2.68 0 1.36 0 0 Z " fill="#D4E5EF" transform="translate(560,298)"/>
<path d="M0 0 C3.96 0 7.92 0 12 0 C12 1.32 12 2.64 12 4 C8.04 4 4.08 4 0 4 C0 2.68 0 1.36 0 0 Z " fill="#CFE2EE" transform="translate(484,298)"/>
<path d="M0 0 C2.64 0 5.28 0 8 0 C8 2.64 8 5.28 8 8 C6.68 8 5.36 8 4 8 C4 6.68 4 5.36 4 4 C2.68 4 1.36 4 0 4 C0 2.68 0 1.36 0 0 Z " fill="#52A9CE" transform="translate(428,298)"/>
<path d="M0 0 C2.64 0 5.28 0 8 0 C8 2.64 8 5.28 8 8 C6.68 8 5.36 8 4 8 C4 6.68 4 5.36 4 4 C2.68 4 1.36 4 0 4 C0 2.68 0 1.36 0 0 Z " fill="#B9D8E8" transform="translate(440,274)"/>
<path d="M0 0 C2.64 0 5.28 0 8 0 C8 2.64 8 5.28 8 8 C6.68 8 5.36 8 4 8 C4 6.68 4 5.36 4 4 C2.68 4 1.36 4 0 4 C0 2.68 0 1.36 0 0 Z " fill="#5CADD0" transform="translate(404,274)"/>
<path d="M0 0 C1.32 0 2.64 0 4 0 C4 3.96 4 7.92 4 12 C2.68 12 1.36 12 0 12 C0 8.04 0 4.08 0 0 Z " fill="#8DC3DC" transform="translate(636,258)"/>
<path d="M0 0 C1.32 0 2.64 0 4 0 C4 1.32 4 2.64 4 4 C5.32 4 6.64 4 8 4 C8 5.32 8 6.64 8 8 C5.36 8 2.72 8 0 8 C0 5.36 0 2.72 0 0 Z " fill="#55ABCF" transform="translate(424,258)"/>
<path d="M0 0 C1.32 0 2.64 0 4 0 C4 2.64 4 5.28 4 8 C1.36 8 -1.28 8 -4 8 C-4 6.68 -4 5.36 -4 4 C-2.68 4 -1.36 4 0 4 C0 2.68 0 1.36 0 0 Z " fill="#B9D8E8" transform="translate(140,222)"/>
<path d="M0 0 C1.32 0 2.64 0 4 0 C4 3.96 4 7.92 4 12 C2.68 12 1.36 12 0 12 C0 8.04 0 4.08 0 0 Z " fill="#5DADD0" transform="translate(376,210)"/>
<path d="M0 0 C1.32 0 2.64 0 4 0 C4 3.96 4 7.92 4 12 C2.68 12 1.36 12 0 12 C0 8.04 0 4.08 0 0 Z " fill="#AAD1E4" transform="translate(400,202)"/>
<path d="M0 0 C1.32 0 2.64 0 4 0 C4 3.96 4 7.92 4 12 C2.68 12 1.36 12 0 12 C0 8.04 0 4.08 0 0 Z " fill="#68B2D3" transform="translate(372,198)"/>
<path d="M0 0 C3.96 0 7.92 0 12 0 C12 1.32 12 2.64 12 4 C8.04 4 4.08 4 0 4 C0 2.68 0 1.36 0 0 Z " fill="#C6DEEB" transform="translate(360,198)"/>
<path d="M0 0 C1.32 0 2.64 0 4 0 C4 2.64 4 5.28 4 8 C1.36 8 -1.28 8 -4 8 C-4 6.68 -4 5.36 -4 4 C-2.68 4 -1.36 4 0 4 C0 2.68 0 1.36 0 0 Z " fill="#55AACE" transform="translate(144,194)"/>
<path d="M0 0 C1.32 0 2.64 0 4 0 C4 2.64 4 5.28 4 8 C1.36 8 -1.28 8 -4 8 C-4 6.68 -4 5.36 -4 4 C-2.68 4 -1.36 4 0 4 C0 2.68 0 1.36 0 0 Z " fill="#B4D6E7" transform="translate(164,190)"/>
<path d="M0 0 C1.32 0 2.64 0 4 0 C4 3.96 4 7.92 4 12 C2.68 12 1.36 12 0 12 C0 8.04 0 4.08 0 0 Z " fill="#63AFD1" transform="translate(392,182)"/>
<path d="M0 0 C2.64 0 5.28 0 8 0 C8 2.64 8 5.28 8 8 C6.68 8 5.36 8 4 8 C4 6.68 4 5.36 4 4 C2.68 4 1.36 4 0 4 C0 2.68 0 1.36 0 0 Z " fill="#6FB6D5" transform="translate(572,178)"/>
<path d="M0 0 C1.32 0 2.64 0 4 0 C4 3.96 4 7.92 4 12 C2.68 12 1.36 12 0 12 C0 8.04 0 4.08 0 0 Z " fill="#90C4DD" transform="translate(364,170)"/>
<path d="M0 0 C1.32 0 2.64 0 4 0 C4 2.64 4 5.28 4 8 C1.36 8 -1.28 8 -4 8 C-4 6.68 -4 5.36 -4 4 C-2.68 4 -1.36 4 0 4 C0 2.68 0 1.36 0 0 Z " fill="#78BAD7" transform="translate(164,166)"/>
<path d="M0 0 C3.96 0 7.92 0 12 0 C12 1.32 12 2.64 12 4 C8.04 4 4.08 4 0 4 C0 2.68 0 1.36 0 0 Z " fill="#8FC4DC" transform="translate(428,166)"/>
<path d="M0 0 C1.32 0 2.64 0 4 0 C4 2.64 4 5.28 4 8 C1.36 8 -1.28 8 -4 8 C-4 6.68 -4 5.36 -4 4 C-2.68 4 -1.36 4 0 4 C0 2.68 0 1.36 0 0 Z " fill="#9FCCE0" transform="translate(188,162)"/>
<path d="M0 0 C1.32 0 2.64 0 4 0 C4 2.64 4 5.28 4 8 C1.36 8 -1.28 8 -4 8 C-4 6.68 -4 5.36 -4 4 C-2.68 4 -1.36 4 0 4 C0 2.68 0 1.36 0 0 Z " fill="#48A5CB" transform="translate(172,158)"/>
<path d="M0 0 C3.96 0 7.92 0 12 0 C12 1.32 12 2.64 12 4 C8.04 4 4.08 4 0 4 C0 2.68 0 1.36 0 0 Z " fill="#72B6D5" transform="translate(508,158)"/>
<path d="M0 0 C3.96 0 7.92 0 12 0 C12 1.32 12 2.64 12 4 C8.04 4 4.08 4 0 4 C0 2.68 0 1.36 0 0 Z " fill="#91C5DD" transform="translate(480,158)"/>
<path d="M0 0 C1.32 0 2.64 0 4 0 C4 2.64 4 5.28 4 8 C1.36 8 -1.28 8 -4 8 C-4 6.68 -4 5.36 -4 4 C-2.68 4 -1.36 4 0 4 C0 2.68 0 1.36 0 0 Z " fill="#B0D4E6" transform="translate(196,154)"/>
<path d="M0 0 C1.32 0 2.64 0 4 0 C4 3.96 4 7.92 4 12 C2.68 12 1.36 12 0 12 C0 8.04 0 4.08 0 0 Z " fill="#3EA0C9" transform="translate(384,150)"/>
<path d="M0 0 C3.96 0 7.92 0 12 0 C12 1.32 12 2.64 12 4 C8.04 4 4.08 4 0 4 C0 2.68 0 1.36 0 0 Z " fill="#53A9CD" transform="translate(544,146)"/>
<path d="M0 0 C3.96 0 7.92 0 12 0 C12 1.32 12 2.64 12 4 C8.04 4 4.08 4 0 4 C0 2.68 0 1.36 0 0 Z " fill="#3BA0C8" transform="translate(512,142)"/>
<path d="M0 0 C3.96 0 7.92 0 12 0 C12 1.32 12 2.64 12 4 C8.04 4 4.08 4 0 4 C0 2.68 0 1.36 0 0 Z " fill="#AFD3E5" transform="translate(512,138)"/>
<path d="M0 0 C1.32 0 2.64 0 4 0 C4 2.64 4 5.28 4 8 C1.36 8 -1.28 8 -4 8 C-4 6.68 -4 5.36 -4 4 C-2.68 4 -1.36 4 0 4 C0 2.68 0 1.36 0 0 Z " fill="#7BBBD8" transform="translate(192,134)"/>
<path d="M0 0 C1.32 0 2.64 0 4 0 C4 2.64 4 5.28 4 8 C1.36 8 -1.28 8 -4 8 C-4 6.68 -4 5.36 -4 4 C-2.68 4 -1.36 4 0 4 C0 2.68 0 1.36 0 0 Z " fill="#6DB5D4" transform="translate(200,126)"/>
<path d="M0 0 C1.32 0 2.64 0 4 0 C4 3.96 4 7.92 4 12 C2.68 12 1.36 12 0 12 C0 8.04 0 4.08 0 0 Z " fill="#4CA6CC" transform="translate(348,86)"/>
<path d="M0 0 C1.32 0 2.64 0 4 0 C4 3.96 4 7.92 4 12 C2.68 12 1.36 12 0 12 C0 8.04 0 4.08 0 0 Z " fill="#99C9DF" transform="translate(368,74)"/>
<path d="M0 0 C2.64 0 5.28 0 8 0 C8 2.64 8 5.28 8 8 C6.68 8 5.36 8 4 8 C4 6.68 4 5.36 4 4 C2.68 4 1.36 4 0 4 C0 2.68 0 1.36 0 0 Z " fill="#BCD9E8" transform="translate(348,46)"/>
<path d="M0 0 C1.32 0 2.64 0 4 0 C4 2.64 4 5.28 4 8 C2.68 8 1.36 8 0 8 C0 5.36 0 2.72 0 0 Z " fill="#C1DCE9" transform="translate(64,338)"/>
<path d="M0 0 C2.64 0 5.28 0 8 0 C8 1.32 8 2.64 8 4 C5.36 4 2.72 4 0 4 C0 2.68 0 1.36 0 0 Z " fill="#C9E0EC" transform="translate(552,330)"/>
<path d="M0 0 C1.32 0 2.64 0 4 0 C4 2.64 4 5.28 4 8 C2.68 8 1.36 8 0 8 C0 5.36 0 2.72 0 0 Z " fill="#88C1DB" transform="translate(72,326)"/>
<path d="M0 0 C1.32 0 2.64 0 4 0 C4 2.64 4 5.28 4 8 C2.68 8 1.36 8 0 8 C0 5.36 0 2.72 0 0 Z " fill="#B3D5E6" transform="translate(68,326)"/>
<path d="M0 0 C2.64 0 5.28 0 8 0 C8 1.32 8 2.64 8 4 C5.36 4 2.72 4 0 4 C0 2.68 0 1.36 0 0 Z " fill="#C7DFEB" transform="translate(568,326)"/>
<path d="M0 0 C2.64 0 5.28 0 8 0 C8 1.32 8 2.64 8 4 C5.36 4 2.72 4 0 4 C0 2.68 0 1.36 0 0 Z " fill="#CDE2ED" transform="translate(580,322)"/>
<path d="M0 0 C1.32 0 2.64 0 4 0 C4 2.64 4 5.28 4 8 C2.68 8 1.36 8 0 8 C0 5.36 0 2.72 0 0 Z " fill="#D6E7F0" transform="translate(80,318)"/>
<path d="M0 0 C2.64 0 5.28 0 8 0 C8 1.32 8 2.64 8 4 C5.36 4 2.72 4 0 4 C0 2.68 0 1.36 0 0 Z " fill="#A3CEE2" transform="translate(588,318)"/>
<path d="M0 0 C2.64 0 5.28 0 8 0 C8 1.32 8 2.64 8 4 C5.36 4 2.72 4 0 4 C0 2.68 0 1.36 0 0 Z " fill="#C9E0EC" transform="translate(600,314)"/>
<path d="M0 0 C2.64 0 5.28 0 8 0 C8 1.32 8 2.64 8 4 C5.36 4 2.72 4 0 4 C0 2.68 0 1.36 0 0 Z " fill="#6BB3D3" transform="translate(452,314)"/>
<path d="M0 0 C1.32 0 2.64 0 4 0 C4 2.64 4 5.28 4 8 C2.68 8 1.36 8 0 8 C0 5.36 0 2.72 0 0 Z " fill="#CBE1ED" transform="translate(84,310)"/>
<path d="M0 0 C2.64 0 5.28 0 8 0 C8 1.32 8 2.64 8 4 C5.36 4 2.72 4 0 4 C0 2.68 0 1.36 0 0 Z " fill="#6AB4D4" transform="translate(444,310)"/>
<path d="M0 0 C2.64 0 5.28 0 8 0 C8 1.32 8 2.64 8 4 C5.36 4 2.72 4 0 4 C0 2.68 0 1.36 0 0 Z " fill="#79B9D8" transform="translate(436,306)"/>
<path d="M0 0 C2.64 0 5.28 0 8 0 C8 1.32 8 2.64 8 4 C5.36 4 2.72 4 0 4 C0 2.68 0 1.36 0 0 Z " fill="#4CA7CC" transform="translate(572,298)"/>
<path d="M0 0 C1.32 0 2.64 0 4 0 C4 2.64 4 5.28 4 8 C2.68 8 1.36 8 0 8 C0 5.36 0 2.72 0 0 Z " fill="#2598C4" transform="translate(88,294)"/>
<path d="M0 0 C2.64 0 5.28 0 8 0 C8 1.32 8 2.64 8 4 C5.36 4 2.72 4 0 4 C0 2.68 0 1.36 0 0 Z " fill="#54ABCF" transform="translate(580,294)"/>
<path d="M0 0 C2.64 0 5.28 0 8 0 C8 1.32 8 2.64 8 4 C5.36 4 2.72 4 0 4 C0 2.68 0 1.36 0 0 Z " fill="#4CA6CB" transform="translate(588,290)"/>
<path d="M0 0 C1.32 0 2.64 0 4 0 C4 2.64 4 5.28 4 8 C2.68 8 1.36 8 0 8 C0 5.36 0 2.72 0 0 Z " fill="#D5E6F0" transform="translate(632,282)"/>
<path d="M0 0 C2.64 0 5.28 0 8 0 C8 1.32 8 2.64 8 4 C5.36 4 2.72 4 0 4 C0 2.68 0 1.36 0 0 Z " fill="#BDDAE9" transform="translate(456,286)"/>
<path d="M0 0 C1.32 0 2.64 0 4 0 C4 2.64 4 5.28 4 8 C2.68 8 1.36 8 0 8 C0 5.36 0 2.72 0 0 Z " fill="#D4E5EF" transform="translate(104,278)"/>
<path d="M0 0 C1.32 0 2.64 0 4 0 C4 2.64 4 5.28 4 8 C2.68 8 1.36 8 0 8 C0 5.36 0 2.72 0 0 Z " fill="#7ABAD7" transform="translate(632,274)"/>
<path d="M0 0 C1.32 0 2.64 0 4 0 C4 2.64 4 5.28 4 8 C2.68 8 1.36 8 0 8 C0 5.36 0 2.72 0 0 Z " fill="#80BDD9" transform="translate(604,274)"/>
<path d="M0 0 C1.32 0 2.64 0 4 0 C4 2.64 4 5.28 4 8 C2.68 8 1.36 8 0 8 C0 5.36 0 2.72 0 0 Z " fill="#C6DEEB" transform="translate(636,270)"/>
<path d="M0 0 C1.32 0 2.64 0 4 0 C4 2.64 4 5.28 4 8 C2.68 8 1.36 8 0 8 C0 5.36 0 2.72 0 0 Z " fill="#C5DEEB" transform="translate(108,270)"/>
<path d="M0 0 C1.32 0 2.64 0 4 0 C4 2.64 4 5.28 4 8 C2.68 8 1.36 8 0 8 C0 5.36 0 2.72 0 0 Z " fill="#8DC3DC" transform="translate(608,266)"/>
<path d="M0 0 C1.32 0 2.64 0 4 0 C4 2.64 4 5.28 4 8 C2.68 8 1.36 8 0 8 C0 5.36 0 2.72 0 0 Z " fill="#46A3CA" transform="translate(612,262)"/>
<path d="M0 0 C1.32 0 2.64 0 4 0 C4 2.64 4 5.28 4 8 C2.68 8 1.36 8 0 8 C0 5.36 0 2.72 0 0 Z " fill="#B9D7E8" transform="translate(396,262)"/>
<path d="M0 0 C1.32 0 2.64 0 4 0 C4 2.64 4 5.28 4 8 C2.68 8 1.36 8 0 8 C0 5.36 0 2.72 0 0 Z " fill="#9BCAE0" transform="translate(100,262)"/>
<path d="M0 0 C1.32 0 2.64 0 4 0 C4 2.64 4 5.28 4 8 C2.68 8 1.36 8 0 8 C0 5.36 0 2.72 0 0 Z " fill="#5CAED0" transform="translate(104,258)"/>
<path d="M0 0 C1.32 0 2.64 0 4 0 C4 2.64 4 5.28 4 8 C2.68 8 1.36 8 0 8 C0 5.36 0 2.72 0 0 Z " fill="#AAD1E4" transform="translate(392,254)"/>
<path d="M0 0 C2.64 0 5.28 0 8 0 C8 1.32 8 2.64 8 4 C5.36 4 2.72 4 0 4 C0 2.68 0 1.36 0 0 Z " fill="#D4E6EF" transform="translate(280,258)"/>
<path d="M0 0 C1.32 0 2.64 0 4 0 C4 2.64 4 5.28 4 8 C2.68 8 1.36 8 0 8 C0 5.36 0 2.72 0 0 Z " fill="#62AFD2" transform="translate(420,250)"/>
<path d="M0 0 C1.32 0 2.64 0 4 0 C4 2.64 4 5.28 4 8 C2.68 8 1.36 8 0 8 C0 5.36 0 2.72 0 0 Z " fill="#5EADD0" transform="translate(276,254)"/>
<path d="M0 0 C1.32 0 2.64 0 4 0 C4 2.64 4 5.28 4 8 C2.68 8 1.36 8 0 8 C0 5.36 0 2.72 0 0 Z " fill="#B0D4E6" transform="translate(120,250)"/>
<path d="M0 0 C1.32 0 2.64 0 4 0 C4 2.64 4 5.28 4 8 C2.68 8 1.36 8 0 8 C0 5.36 0 2.72 0 0 Z " fill="#65B1D2" transform="translate(108,250)"/>
<path d="M0 0 C1.32 0 2.64 0 4 0 C4 2.64 4 5.28 4 8 C2.68 8 1.36 8 0 8 C0 5.36 0 2.72 0 0 Z " fill="#369DC7" transform="translate(416,246)"/>
<path d="M0 0 C1.32 0 2.64 0 4 0 C4 2.64 4 5.28 4 8 C2.68 8 1.36 8 0 8 C0 5.36 0 2.72 0 0 Z " fill="#AAD1E4" transform="translate(388,246)"/>
<path d="M0 0 C1.32 0 2.64 0 4 0 C4 2.64 4 5.28 4 8 C2.68 8 1.36 8 0 8 C0 5.36 0 2.72 0 0 Z " fill="#B3D6E6" transform="translate(128,238)"/>
<path d="M0 0 C1.32 0 2.64 0 4 0 C4 2.64 4 5.28 4 8 C2.68 8 1.36 8 0 8 C0 5.36 0 2.72 0 0 Z " fill="#55AACE" transform="translate(612,230)"/>
<path d="M0 0 C2.64 0 5.28 0 8 0 C8 1.32 8 2.64 8 4 C5.36 4 2.72 4 0 4 C0 2.68 0 1.36 0 0 Z " fill="#BCD9E9" transform="translate(308,234)"/>
<path d="M0 0 C1.32 0 2.64 0 4 0 C4 2.64 4 5.28 4 8 C2.68 8 1.36 8 0 8 C0 5.36 0 2.72 0 0 Z " fill="#8EC4DC" transform="translate(132,230)"/>
<path d="M0 0 C1.32 0 2.64 0 4 0 C4 2.64 4 5.28 4 8 C2.68 8 1.36 8 0 8 C0 5.36 0 2.72 0 0 Z " fill="#48A6CC" transform="translate(120,230)"/>
<path d="M0 0 C1.32 0 2.64 0 4 0 C4 2.64 4 5.28 4 8 C2.68 8 1.36 8 0 8 C0 5.36 0 2.72 0 0 Z " fill="#A4CEE2" transform="translate(636,226)"/>
<path d="M0 0 C1.32 0 2.64 0 4 0 C4 2.64 4 5.28 4 8 C2.68 8 1.36 8 0 8 C0 5.36 0 2.72 0 0 Z " fill="#BCDAE8" transform="translate(608,226)"/>
<path d="M0 0 C1.32 0 2.64 0 4 0 C4 2.64 4 5.28 4 8 C2.68 8 1.36 8 0 8 C0 5.36 0 2.72 0 0 Z " fill="#71B6D6" transform="translate(124,222)"/>
<path d="M0 0 C1.32 0 2.64 0 4 0 C4 2.64 4 5.28 4 8 C2.68 8 1.36 8 0 8 C0 5.36 0 2.72 0 0 Z " fill="#65B1D2" transform="translate(608,218)"/>
<path d="M0 0 C1.32 0 2.64 0 4 0 C4 2.64 4 5.28 4 8 C2.68 8 1.36 8 0 8 C0 5.36 0 2.72 0 0 Z " fill="#97C8DF" transform="translate(632,214)"/>
<path d="M0 0 C1.32 0 2.64 0 4 0 C4 2.64 4 5.28 4 8 C2.68 8 1.36 8 0 8 C0 5.36 0 2.72 0 0 Z " fill="#ADD2E5" transform="translate(604,214)"/>
<path d="M0 0 C1.32 0 2.64 0 4 0 C4 2.64 4 5.28 4 8 C2.68 8 1.36 8 0 8 C0 5.36 0 2.72 0 0 Z " fill="#B6D7E8" transform="translate(404,214)"/>
<path d="M0 0 C1.32 0 2.64 0 4 0 C4 2.64 4 5.28 4 8 C2.68 8 1.36 8 0 8 C0 5.36 0 2.72 0 0 Z " fill="#5EAFD1" transform="translate(132,210)"/>
<path d="M0 0 C1.32 0 2.64 0 4 0 C4 2.64 4 5.28 4 8 C2.68 8 1.36 8 0 8 C0 5.36 0 2.72 0 0 Z " fill="#83BED9" transform="translate(628,206)"/>
<path d="M0 0 C1.32 0 2.64 0 4 0 C4 2.64 4 5.28 4 8 C2.68 8 1.36 8 0 8 C0 5.36 0 2.72 0 0 Z " fill="#4CA6CC" transform="translate(624,202)"/>
<path d="M0 0 C1.32 0 2.64 0 4 0 C4 2.64 4 5.28 4 8 C2.68 8 1.36 8 0 8 C0 5.36 0 2.72 0 0 Z " fill="#CAE0EC" transform="translate(596,202)"/>
<path d="M0 0 C1.32 0 2.64 0 4 0 C4 2.64 4 5.28 4 8 C2.68 8 1.36 8 0 8 C0 5.36 0 2.72 0 0 Z " fill="#81BDD9" transform="translate(136,202)"/>
<path d="M0 0 C2.64 0 5.28 0 8 0 C8 1.32 8 2.64 8 4 C5.36 4 2.72 4 0 4 C0 2.68 0 1.36 0 0 Z " fill="#C1DCEA" transform="translate(352,202)"/>
<path d="M0 0 C1.32 0 2.64 0 4 0 C4 2.64 4 5.28 4 8 C2.68 8 1.36 8 0 8 C0 5.36 0 2.72 0 0 Z " fill="#5EAED1" transform="translate(620,194)"/>
<path d="M0 0 C1.32 0 2.64 0 4 0 C4 2.64 4 5.28 4 8 C2.68 8 1.36 8 0 8 C0 5.36 0 2.72 0 0 Z " fill="#8DC3DD" transform="translate(396,194)"/>
<path d="M0 0 C2.64 0 5.28 0 8 0 C8 1.32 8 2.64 8 4 C5.36 4 2.72 4 0 4 C0 2.68 0 1.36 0 0 Z " fill="#6DB4D4" transform="translate(336,198)"/>
<path d="M0 0 C2.64 0 5.28 0 8 0 C8 1.32 8 2.64 8 4 C5.36 4 2.72 4 0 4 C0 2.68 0 1.36 0 0 Z " fill="#6CB3D3" transform="translate(364,194)"/>
<path d="M0 0 C2.64 0 5.28 0 8 0 C8 1.32 8 2.64 8 4 C5.36 4 2.72 4 0 4 C0 2.68 0 1.36 0 0 Z " fill="#40A2CA" transform="translate(344,194)"/>
<path d="M0 0 C2.64 0 5.28 0 8 0 C8 1.32 8 2.64 8 4 C5.36 4 2.72 4 0 4 C0 2.68 0 1.36 0 0 Z " fill="#D5E6EF" transform="translate(400,178)"/>
<path d="M0 0 C2.64 0 5.28 0 8 0 C8 1.32 8 2.64 8 4 C5.36 4 2.72 4 0 4 C0 2.68 0 1.36 0 0 Z " fill="#BCDAE8" transform="translate(408,174)"/>
<path d="M0 0 C2.64 0 5.28 0 8 0 C8 1.32 8 2.64 8 4 C5.36 4 2.72 4 0 4 C0 2.68 0 1.36 0 0 Z " fill="#41A2CA" transform="translate(560,170)"/>
<path d="M0 0 C2.64 0 5.28 0 8 0 C8 1.32 8 2.64 8 4 C5.36 4 2.72 4 0 4 C0 2.68 0 1.36 0 0 Z " fill="#BCD9E8" transform="translate(552,170)"/>
<path d="M0 0 C2.64 0 5.28 0 8 0 C8 1.32 8 2.64 8 4 C5.36 4 2.72 4 0 4 C0 2.68 0 1.36 0 0 Z " fill="#91C6DD" transform="translate(416,170)"/>
<path d="M0 0 C2.64 0 5.28 0 8 0 C8 1.32 8 2.64 8 4 C5.36 4 2.72 4 0 4 C0 2.68 0 1.36 0 0 Z " fill="#41A2CA" transform="translate(552,166)"/>
<path d="M0 0 C2.64 0 5.28 0 8 0 C8 1.32 8 2.64 8 4 C5.36 4 2.72 4 0 4 C0 2.68 0 1.36 0 0 Z " fill="#9ECBE0" transform="translate(544,166)"/>
<path d="M0 0 C2.64 0 5.28 0 8 0 C8 1.32 8 2.64 8 4 C5.36 4 2.72 4 0 4 C0 2.68 0 1.36 0 0 Z " fill="#43A3CB" transform="translate(392,166)"/>
<path d="M0 0 C2.64 0 5.28 0 8 0 C8 1.32 8 2.64 8 4 C5.36 4 2.72 4 0 4 C0 2.68 0 1.36 0 0 Z " fill="#339CC6" transform="translate(544,162)"/>
<path d="M0 0 C2.64 0 5.28 0 8 0 C8 1.32 8 2.64 8 4 C5.36 4 2.72 4 0 4 C0 2.68 0 1.36 0 0 Z " fill="#A5CEE3" transform="translate(528,162)"/>
<path d="M0 0 C2.64 0 5.28 0 8 0 C8 1.32 8 2.64 8 4 C5.36 4 2.72 4 0 4 C0 2.68 0 1.36 0 0 Z " fill="#CAE0EC" transform="translate(456,162)"/>
<path d="M0 0 C2.64 0 5.28 0 8 0 C8 1.32 8 2.64 8 4 C5.36 4 2.72 4 0 4 C0 2.68 0 1.36 0 0 Z " fill="#61AFD1" transform="translate(440,162)"/>
<path d="M0 0 C2.64 0 5.28 0 8 0 C8 1.32 8 2.64 8 4 C5.36 4 2.72 4 0 4 C0 2.68 0 1.36 0 0 Z " fill="#51A8CD" transform="translate(520,158)"/>
<path d="M0 0 C2.64 0 5.28 0 8 0 C8 1.32 8 2.64 8 4 C5.36 4 2.72 4 0 4 C0 2.68 0 1.36 0 0 Z " fill="#A7CFE3" transform="translate(492,158)"/>
<path d="M0 0 C2.64 0 5.28 0 8 0 C8 1.32 8 2.64 8 4 C5.36 4 2.72 4 0 4 C0 2.68 0 1.36 0 0 Z " fill="#4FA7CD" transform="translate(460,158)"/>
<path d="M0 0 C2.64 0 5.28 0 8 0 C8 1.32 8 2.64 8 4 C5.36 4 2.72 4 0 4 C0 2.68 0 1.36 0 0 Z " fill="#359DC7" transform="translate(452,158)"/>
<path d="M0 0 C2.64 0 5.28 0 8 0 C8 1.32 8 2.64 8 4 C5.36 4 2.72 4 0 4 C0 2.68 0 1.36 0 0 Z " fill="#D6E6EF" transform="translate(576,154)"/>
<path d="M0 0 C1.32 0 2.64 0 4 0 C4 2.64 4 5.28 4 8 C2.68 8 1.36 8 0 8 C0 5.36 0 2.72 0 0 Z " fill="#8AC2DB" transform="translate(360,150)"/>
<path d="M0 0 C2.64 0 5.28 0 8 0 C8 1.32 8 2.64 8 4 C5.36 4 2.72 4 0 4 C0 2.68 0 1.36 0 0 Z " fill="#7BBBD7" transform="translate(428,150)"/>
<path d="M0 0 C2.64 0 5.28 0 8 0 C8 1.32 8 2.64 8 4 C5.36 4 2.72 4 0 4 C0 2.68 0 1.36 0 0 Z " fill="#C3DCEA" transform="translate(200,150)"/>
<path d="M0 0 C2.64 0 5.28 0 8 0 C8 1.32 8 2.64 8 4 C5.36 4 2.72 4 0 4 C0 2.68 0 1.36 0 0 Z " fill="#BBD9E8" transform="translate(556,146)"/>
<path d="M0 0 C2.64 0 5.28 0 8 0 C8 1.32 8 2.64 8 4 C5.36 4 2.72 4 0 4 C0 2.68 0 1.36 0 0 Z " fill="#329BC6" transform="translate(456,146)"/>
<path d="M0 0 C2.64 0 5.28 0 8 0 C8 1.32 8 2.64 8 4 C5.36 4 2.72 4 0 4 C0 2.68 0 1.36 0 0 Z " fill="#8DC4DC" transform="translate(440,146)"/>
<path d="M0 0 C2.64 0 5.28 0 8 0 C8 1.32 8 2.64 8 4 C5.36 4 2.72 4 0 4 C0 2.68 0 1.36 0 0 Z " fill="#C8DFEC" transform="translate(544,142)"/>
<path d="M0 0 C2.64 0 5.28 0 8 0 C8 1.32 8 2.64 8 4 C5.36 4 2.72 4 0 4 C0 2.68 0 1.36 0 0 Z " fill="#5DADD0" transform="translate(524,142)"/>
<path d="M0 0 C2.64 0 5.28 0 8 0 C8 1.32 8 2.64 8 4 C5.36 4 2.72 4 0 4 C0 2.68 0 1.36 0 0 Z " fill="#4CA6CC" transform="translate(476,142)"/>
<path d="M0 0 C2.64 0 5.28 0 8 0 C8 1.32 8 2.64 8 4 C5.36 4 2.72 4 0 4 C0 2.68 0 1.36 0 0 Z " fill="#99C8DF" transform="translate(456,142)"/>
<path d="M0 0 C2.64 0 5.28 0 8 0 C8 1.32 8 2.64 8 4 C5.36 4 2.72 4 0 4 C0 2.68 0 1.36 0 0 Z " fill="#D0E3EE" transform="translate(524,138)"/>
<path d="M0 0 C2.64 0 5.28 0 8 0 C8 1.32 8 2.64 8 4 C5.36 4 2.72 4 0 4 C0 2.68 0 1.36 0 0 Z " fill="#BFDBE9" transform="translate(476,138)"/>
<path d="M0 0 C2.64 0 5.28 0 8 0 C8 1.32 8 2.64 8 4 C5.36 4 2.72 4 0 4 C0 2.68 0 1.36 0 0 Z " fill="#DBE9F1" transform="translate(468,138)"/>
<path d="M0 0 C1.32 0 2.64 0 4 0 C4 2.64 4 5.28 4 8 C2.68 8 1.36 8 0 8 C0 5.36 0 2.72 0 0 Z " fill="#AED3E4" transform="translate(356,134)"/>
<path d="M0 0 C2.64 0 5.28 0 8 0 C8 1.32 8 2.64 8 4 C5.36 4 2.72 4 0 4 C0 2.68 0 1.36 0 0 Z " fill="#58ADD0" transform="translate(204,122)"/>
<path d="M0 0 C2.64 0 5.28 0 8 0 C8 1.32 8 2.64 8 4 C5.36 4 2.72 4 0 4 C0 2.68 0 1.36 0 0 Z " fill="#B2D4E6" transform="translate(236,118)"/>
<path d="M0 0 C2.64 0 5.28 0 8 0 C8 1.32 8 2.64 8 4 C5.36 4 2.72 4 0 4 C0 2.68 0 1.36 0 0 Z " fill="#6AB3D4" transform="translate(212,114)"/>
<path d="M0 0 C2.64 0 5.28 0 8 0 C8 1.32 8 2.64 8 4 C5.36 4 2.72 4 0 4 C0 2.68 0 1.36 0 0 Z " fill="#B6D6E7" transform="translate(252,106)"/>
<path d="M0 0 C1.32 0 2.64 0 4 0 C4 2.64 4 5.28 4 8 C2.68 8 1.36 8 0 8 C0 5.36 0 2.72 0 0 Z " fill="#BEDAE8" transform="translate(348,98)"/>
<path d="M0 0 C2.64 0 5.28 0 8 0 C8 1.32 8 2.64 8 4 C5.36 4 2.72 4 0 4 C0 2.68 0 1.36 0 0 Z " fill="#5EAED0" transform="translate(240,90)"/>
<path d="M0 0 C2.64 0 5.28 0 8 0 C8 1.32 8 2.64 8 4 C5.36 4 2.72 4 0 4 C0 2.68 0 1.36 0 0 Z " fill="#AFD3E5" transform="translate(280,86)"/>
<path d="M0 0 C1.32 0 2.64 0 4 0 C4 2.64 4 5.28 4 8 C2.68 8 1.36 8 0 8 C0 5.36 0 2.72 0 0 Z " fill="#71B6D5" transform="translate(344,78)"/>
<path d="M0 0 C2.64 0 5.28 0 8 0 C8 1.32 8 2.64 8 4 C5.36 4 2.72 4 0 4 C0 2.68 0 1.36 0 0 Z " fill="#9CCBE0" transform="translate(292,78)"/>
<path d="M0 0 C2.64 0 5.28 0 8 0 C8 1.32 8 2.64 8 4 C5.36 4 2.72 4 0 4 C0 2.68 0 1.36 0 0 Z " fill="#59ADD0" transform="translate(256,78)"/>
<path d="M0 0 C1.32 0 2.64 0 4 0 C4 2.64 4 5.28 4 8 C2.68 8 1.36 8 0 8 C0 5.36 0 2.72 0 0 Z " fill="#86C0DA" transform="translate(340,70)"/>
<path d="M0 0 C2.64 0 5.28 0 8 0 C8 1.32 8 2.64 8 4 C5.36 4 2.72 4 0 4 C0 2.68 0 1.36 0 0 Z " fill="#A8D0E3" transform="translate(300,74)"/>
<path d="M0 0 C1.32 0 2.64 0 4 0 C4 2.64 4 5.28 4 8 C2.68 8 1.36 8 0 8 C0 5.36 0 2.72 0 0 Z " fill="#88C1DA" transform="translate(364,66)"/>
<path d="M0 0 C2.64 0 5.28 0 8 0 C8 1.32 8 2.64 8 4 C5.36 4 2.72 4 0 4 C0 2.68 0 1.36 0 0 Z " fill="#ABD2E4" transform="translate(308,70)"/>
<path d="M0 0 C1.32 0 2.64 0 4 0 C4 2.64 4 5.28 4 8 C2.68 8 1.36 8 0 8 C0 5.36 0 2.72 0 0 Z " fill="#4EA7CC" transform="translate(360,62)"/>
<path d="M0 0 C2.64 0 5.28 0 8 0 C8 1.32 8 2.64 8 4 C5.36 4 2.72 4 0 4 C0 2.68 0 1.36 0 0 Z " fill="#BCD9E8" transform="translate(320,66)"/>
<path d="M0 0 C2.64 0 5.28 0 8 0 C8 1.32 8 2.64 8 4 C5.36 4 2.72 4 0 4 C0 2.68 0 1.36 0 0 Z " fill="#369CC7" transform="translate(328,62)"/>
<path d="M0 0 C2.64 0 5.28 0 8 0 C8 1.32 8 2.64 8 4 C5.36 4 2.72 4 0 4 C0 2.68 0 1.36 0 0 Z " fill="#7DBCD8" transform="translate(284,58)"/>
<path d="M0 0 C2.64 0 5.28 0 8 0 C8 1.32 8 2.64 8 4 C5.36 4 2.72 4 0 4 C0 2.68 0 1.36 0 0 Z " fill="#6EB5D5" transform="translate(292,54)"/>
<path d="M0 0 C2.64 0 5.28 0 8 0 C8 1.32 8 2.64 8 4 C5.36 4 2.72 4 0 4 C0 2.68 0 1.36 0 0 Z " fill="#70B6D5" transform="translate(300,50)"/>
<path d="M0 0 C2.64 0 5.28 0 8 0 C8 1.32 8 2.64 8 4 C5.36 4 2.72 4 0 4 C0 2.68 0 1.36 0 0 Z " fill="#8CC2DC" transform="translate(308,46)"/>
<path d="M0 0 C2.64 0 5.28 0 8 0 C8 1.32 8 2.64 8 4 C5.36 4 2.72 4 0 4 C0 2.68 0 1.36 0 0 Z " fill="#D4E6F0" transform="translate(340,42)"/>
<path d="M0 0 C2.64 0 5.28 0 8 0 C8 1.32 8 2.64 8 4 C5.36 4 2.72 4 0 4 C0 2.68 0 1.36 0 0 Z " fill="#ADD1E4" transform="translate(320,42)"/>
</svg>
